<?xml version="1.0" standalone="no"?>
<!DOCTYPE svg PUBLIC "-//W3C//DTD SVG 1.1//EN" "http://www.w3.org/Graphics/SVG/1.1/DTD/svg11.dtd" >
<!--
2014-3-17: Created.
-->
<svg>
<metadata>
Created by FontForge 20110222 at Mon Mar 17 16:22:25 2014
 By gub,,,
This font is distributed under the GNU General Public License. As a special exception, if you create a document which uses this font, and embed this font or unaltered portions of this font into the document, this font does not by itself cause the resulting document to be covered by the GNU General Public License.
</metadata>
<defs>
<font id="Emmentaler-14" horiz-adv-x="328" >
  <font-face 
    font-family="Emmentaler-14"
    font-weight="500"
    font-stretch="normal"
    units-per-em="1000"
    panose-1="2 0 6 3 0 0 0 0 0 0"
    ascent="800"
    descent="-200"
    x-height="267"
    bbox="-521 -1562 1382 1374"
    underline-thickness="50"
    underline-position="-100"
    unicode-range="U+0020-E31F"
  />
    <missing-glyph />
    <glyph glyph-name="rests.0" unicode="&#xe100;" horiz-adv-x="374" 
d="M361 -156h-347c-8 0 -14 6 -14 14v128c0 8 6 14 14 14h347c8 0 14 -6 14 -14v-128c0 -8 -6 -14 -14 -14z" />
    <glyph glyph-name="rests.1" unicode="&#xe101;" horiz-adv-x="374" 
d="M361 0h-347c-8 0 -14 6 -14 14v128c0 8 6 14 14 14h347c8 0 14 -6 14 -14v-128c0 -8 -6 -14 -14 -14z" />
    <glyph glyph-name="rests.0o" unicode="&#xe102;" horiz-adv-x="374" 
d="M361 -156h-347c-8 0 -14 6 -14 14v110h-124c-18 0 -32 14 -32 32s14 32 32 32h623c18 0 32 -14 32 -32s-14 -32 -32 -32h-124v-110c0 -8 -6 -14 -14 -14z" />
    <glyph glyph-name="rests.1o" unicode="&#xe103;" horiz-adv-x="374" 
d="M499 -32h-623c-18 0 -32 14 -32 32s14 32 32 32h124v110c0 8 6 14 14 14h347c8 0 14 -6 14 -14v-110h124c18 0 32 -14 32 -32s-14 -32 -32 -32z" />
    <glyph glyph-name="rests.M3" unicode="&#xe104;" horiz-adv-x="449" 
d="M436 -250h-122c-8 0 -14 6 -14 14v472c0 8 6 14 14 14h122c8 0 14 -6 14 -14v-472c0 -8 -6 -14 -14 -14zM136 -250h-122c-8 0 -14 6 -14 14v472c0 8 6 14 14 14h122c8 0 14 -6 14 -14v-472c0 -8 -6 -14 -14 -14z" />
    <glyph glyph-name="rests.M2" unicode="&#xe105;" horiz-adv-x="149" 
d="M136 -250h-122c-8 0 -14 6 -14 14v472c0 8 6 14 14 14h122c8 0 14 -6 14 -14v-472c0 -8 -6 -14 -14 -14z" />
    <glyph glyph-name="rests.M1" unicode="&#xe106;" horiz-adv-x="149" 
d="M136 0h-122c-8 0 -14 6 -14 14v222c0 8 6 14 14 14h122c8 0 14 -6 14 -14v-222c0 -8 -6 -14 -14 -14z" />
    <glyph glyph-name="rests.M1o" unicode="&#xe107;" horiz-adv-x="149" 
d="M243 -32h-336c-18 0 -32 14 -32 32s14 32 32 32h93v186h-93c-18 0 -32 14 -32 32s14 32 32 32h336c18 0 32 -14 32 -32s-14 -32 -32 -32h-93v-186h93c18 0 32 -14 32 -32s-14 -32 -32 -32z" />
    <glyph glyph-name="rests.2" unicode="&#xe108;" horiz-adv-x="237" 
d="M-25 -120c0 32 16 43 50 43c28 0 65 -8 99 -20l-124 148c-8 9 -11 17 -11 26c0 35 54 68 90 103c22 22 34 51 34 80c0 25 -9 50 -26 71l-29 34c-4 4 -5 9 -5 13c0 11 10 20 21 20c5 0 11 -2 15 -7l148 -177c8 -9 10 -17 10 -26c0 -35 -53 -68 -89 -103
c-22 -22 -34 -51 -34 -80c0 -25 9 -50 26 -71l77 -91c4 -4 5 -9 5 -13c0 -11 -10 -20 -21 -20c-5 0 -11 2 -15 7c-15 18 -53 31 -84 31c-42 0 -56 -22 -56 -64c0 -33 11 -71 27 -90c2 -2 2 -5 2 -7c0 -5 -5 -10 -10 -10c-3 0 -6 1 -8 4c-44 52 -92 145 -92 199z" />
    <glyph glyph-name="rests.2classical" unicode="&#xe109;" horiz-adv-x="249" 
d="M187 -250c-10 -8 -23 -13 -35 -13s-25 5 -35 13l-117 411c7 15 29 15 37 0c6 -12 41 -50 54 -50c28 0 22 32 32 58c8 23 31 36 56 36c41 0 75 -32 75 -72c0 -45 -40 -79 -87 -79c-34 0 -67 10 -99 21z" />
    <glyph glyph-name="rests.3" unicode="&#xe10a;" horiz-adv-x="249" 
d="M63 -250l119 325c-32 -11 -65 -21 -99 -21c-47 0 -87 34 -87 79c0 40 34 72 75 72c25 0 48 -13 56 -36c10 -26 4 -58 32 -58c13 0 48 38 54 50c8 15 30 15 37 0l-117 -411c-10 -8 -23 -13 -35 -13s-25 5 -35 13z" />
    <glyph glyph-name="rests.4" unicode="&#xe10b;" horiz-adv-x="299" 
d="M57 -500l102 325c-32 -11 -66 -21 -100 -21c-47 0 -87 34 -87 79c0 40 34 72 75 72c25 0 49 -13 57 -36c10 -26 4 -58 32 -58c15 0 49 49 54 64l47 150c-32 -11 -66 -21 -100 -21c-47 0 -87 34 -87 79c0 40 34 72 75 72c25 0 49 -13 57 -36c10 -26 4 -58 32 -58
c13 0 43 38 49 50c8 15 30 15 37 0l-173 -661c-10 -8 -23 -13 -35 -13s-25 5 -35 13z" />
    <glyph glyph-name="rests.5" unicode="&#xe10c;" horiz-adv-x="324" 
d="M44 -500l88 326c-33 -12 -68 -22 -103 -22c-47 0 -87 34 -87 79c0 40 34 72 75 72c25 0 49 -13 57 -36c10 -26 4 -58 32 -58c15 0 49 51 53 67l39 148c-32 -12 -66 -22 -100 -22c-47 0 -87 34 -87 79c0 40 34 72 75 72c25 0 48 -13 56 -36c10 -26 4 -58 32 -58
c15 0 47 49 51 64l40 150c-32 -11 -64 -21 -98 -21c-47 0 -87 34 -87 79c0 40 33 72 74 72c25 0 49 -13 57 -36c10 -26 4 -58 32 -58c27 0 38 69 69 61c6 -2 11 -6 13 -11l-211 -911c-10 -8 -23 -13 -35 -13s-25 5 -35 13z" />
    <glyph glyph-name="rests.6" unicode="&#xe10d;" horiz-adv-x="349" 
d="M50 -750l74 327c-34 -12 -70 -23 -106 -23c-47 0 -87 34 -87 79c0 40 33 72 74 72c25 0 49 -13 57 -36c10 -26 4 -58 32 -58c16 0 49 52 53 69l33 146c-33 -12 -68 -22 -103 -22c-47 0 -87 34 -87 79c0 40 34 72 75 72c25 0 49 -13 57 -36c10 -26 3 -58 31 -58
c15 0 46 50 50 66l34 148c-32 -12 -66 -21 -100 -21c-47 0 -87 34 -87 79c0 40 33 72 74 72c25 0 49 -13 57 -36c10 -26 4 -58 32 -58c14 0 43 49 46 64l34 150c-31 -11 -64 -21 -97 -21c-47 0 -87 34 -87 79c0 40 34 72 75 72c25 0 49 -13 57 -36c10 -26 3 -58 31 -58
c12 0 36 39 41 50c8 16 30 15 37 0l-230 -1161c-10 -8 -23 -13 -35 -13s-25 5 -35 13z" />
    <glyph glyph-name="rests.7" unicode="&#xe10e;" horiz-adv-x="374" 
d="M72 -750l62 328c-36 -13 -72 -24 -110 -24c-47 0 -87 34 -87 79c0 40 33 72 74 72c25 0 49 -13 57 -36c10 -26 4 -58 32 -58c16 0 51 53 54 71l27 145c-34 -12 -70 -23 -107 -23c-47 0 -87 34 -87 79c0 40 34 72 75 72c25 0 49 -13 57 -36c10 -26 3 -58 31 -58
c16 0 47 52 50 69l28 146c-33 -12 -68 -22 -103 -22c-47 0 -87 34 -87 79c0 40 33 72 74 72c25 0 49 -13 57 -36c10 -26 4 -58 32 -58c15 0 43 50 46 66l27 148c-32 -11 -65 -21 -99 -21c-47 0 -87 34 -87 79c0 40 34 72 75 72c25 0 48 -13 56 -36c10 -26 4 -58 32 -58
c14 0 39 49 42 64l28 150c-31 -11 -62 -21 -95 -21c-47 0 -87 34 -87 79c0 40 33 72 74 72c25 0 49 -13 57 -36c10 -26 4 -58 32 -58c11 0 31 40 36 50c7 16 30 16 37 0l-233 -1411c-10 -8 -23 -13 -35 -13s-25 5 -35 13z" />
    <glyph glyph-name="accidentals.sharp" unicode="&#xe10f;" horiz-adv-x="274" 
d="M198 -328c-12 0 -22 10 -22 22v134l-77 -29v-152c0 -12 -10 -22 -22 -22s-22 10 -22 22v134l-16 -6c-3 -1 -8 -2 -11 -2c-15 0 -28 12 -28 28v50c0 12 7 23 18 27l37 14v152l-16 -7c-3 -1 -8 -2 -11 -2c-15 0 -28 13 -28 29v50c0 12 7 22 18 26l37 15v151
c0 12 10 22 22 22s22 -10 22 -22v-134l77 29v152c0 12 10 22 22 22s22 -10 22 -22v-134l16 6c3 1 8 2 11 2c15 0 28 -12 28 -28v-50c0 -12 -7 -23 -18 -27l-37 -14v-152l16 7c3 1 8 2 11 2c15 0 28 -13 28 -29v-50c0 -12 -7 -22 -18 -26l-37 -15v-151c0 -12 -10 -22 -22 -22
zM99 61v-152l77 30v152z" />
    <glyph glyph-name="accidentals.sharp.arrowup" unicode="&#xe110;" horiz-adv-x="274" 
d="M198 -328c-12 0 -22 10 -22 22v134l-77 -29v-152c0 -12 -10 -22 -22 -22s-22 10 -22 22v134l-16 -6c-3 -1 -8 -2 -11 -2c-15 0 -28 12 -28 28v50c0 12 7 23 18 27l37 14v152l-16 -7c-3 -1 -8 -2 -11 -2c-15 0 -28 13 -28 29v50c0 12 7 22 18 26l37 15v151
c0 12 10 22 22 22s22 -10 22 -22v-134l77 29v226c0 13 -5 18 -13 18c-17 0 -49 -23 -77 -39c-2 -1 -4 -2 -6 -2c-6 0 -11 6 -11 12c0 2 0 4 2 6c51 73 85 156 118 238c2 4 5 6 9 6s7 -2 9 -6c33 -82 66 -165 117 -238c2 -2 2 -4 2 -6c0 -6 -5 -12 -11 -12c-2 0 -4 1 -6 2
c-28 16 -60 39 -77 39c-8 0 -12 -5 -12 -18v-208l16 6c3 1 8 2 11 2c15 0 28 -12 28 -28v-50c0 -12 -7 -23 -18 -27l-37 -14v-152l16 7c3 1 8 2 11 2c15 0 28 -13 28 -29v-50c0 -12 -7 -22 -18 -26l-37 -15v-151c0 -12 -10 -22 -22 -22zM99 61v-152l77 30v152z" />
    <glyph glyph-name="accidentals.sharp.arrowdown" unicode="&#xe111;" horiz-adv-x="274" 
d="M198 -328c-12 0 -22 10 -22 22v134l-77 -29v-226c0 -13 5 -18 13 -18c17 0 49 23 77 39c2 1 4 2 6 2c6 0 11 -6 11 -12c0 -2 0 -4 -2 -6c-51 -73 -85 -156 -118 -238c-2 -4 -5 -6 -9 -6s-7 2 -9 6c-33 82 -66 165 -117 238c-2 2 -2 4 -2 6c0 6 5 12 11 12c2 0 4 -1 6 -2
c28 -16 60 -39 77 -39c8 0 12 5 12 18v208l-16 -6c-3 -1 -8 -2 -11 -2c-15 0 -28 12 -28 28v50c0 12 7 23 18 27l37 14v152l-16 -7c-3 -1 -8 -2 -11 -2c-15 0 -28 13 -28 29v50c0 12 7 22 18 26l37 15v151c0 12 10 22 22 22s22 -10 22 -22v-134l77 29v152c0 12 10 22 22 22
s22 -10 22 -22v-134l16 6c3 1 8 2 11 2c15 0 28 -12 28 -28v-50c0 -12 -7 -23 -18 -27l-37 -14v-152l16 7c3 1 8 2 11 2c15 0 28 -13 28 -29v-50c0 -12 -7 -22 -18 -26l-37 -15v-151c0 -12 -10 -22 -22 -22zM99 61v-152l77 30v152z" />
    <glyph glyph-name="accidentals.sharp.arrowboth" unicode="&#xe112;" horiz-adv-x="274" 
d="M198 -328c-12 0 -22 10 -22 22v134l-77 -29v-226c0 -13 5 -18 13 -18c17 0 49 23 77 39c2 1 4 2 6 2c6 0 11 -6 11 -12c0 -2 0 -4 -2 -6c-51 -73 -85 -156 -118 -238c-2 -4 -5 -6 -9 -6s-7 2 -9 6c-33 82 -66 165 -117 238c-2 2 -2 4 -2 6c0 6 5 12 11 12c2 0 4 -1 6 -2
c28 -16 60 -39 77 -39c8 0 12 5 12 18v208l-16 -6c-3 -1 -8 -2 -11 -2c-15 0 -28 12 -28 28v50c0 12 7 23 18 27l37 14v152l-16 -7c-3 -1 -8 -2 -11 -2c-15 0 -28 13 -28 29v50c0 12 7 22 18 26l37 15v151c0 12 10 22 22 22s22 -10 22 -22v-134l77 29v226c0 13 -5 18 -13 18
c-17 0 -49 -23 -77 -39c-2 -1 -4 -2 -6 -2c-6 0 -11 6 -11 12c0 2 0 4 2 6c51 73 85 156 118 238c2 4 5 6 9 6s7 -2 9 -6c33 -82 66 -165 117 -238c2 -2 2 -4 2 -6c0 -6 -5 -12 -11 -12c-2 0 -4 1 -6 2c-28 16 -60 39 -77 39c-8 0 -12 -5 -12 -18v-208l16 6c3 1 8 2 11 2
c15 0 28 -12 28 -28v-50c0 -12 -7 -23 -18 -27l-37 -14v-152l16 7c3 1 8 2 11 2c15 0 28 -13 28 -29v-50c0 -12 -7 -22 -18 -26l-37 -15v-151c0 -12 -10 -22 -22 -22zM99 61v-152l77 30v152z" />
    <glyph glyph-name="accidentals.sharp.slashslash.stem" unicode="&#xe113;" horiz-adv-x="174" 
d="M87 -337c-12 0 -22 10 -22 22v112l-22 -14c-5 -3 -10 -4 -15 -4c-15 0 -28 11 -28 28v51c0 10 6 19 14 24l51 31v146l-22 -13c-5 -3 -10 -4 -15 -4c-15 0 -28 11 -28 28v50c0 10 6 19 14 24l51 32v139c0 12 10 22 22 22s23 -10 23 -22v-112l22 14c5 3 10 4 15 4
c15 0 28 -11 28 -28v-51c0 -10 -6 -19 -14 -24l-51 -31v-146l22 13c5 3 10 4 15 4c15 0 28 -11 28 -28v-50c0 -10 -6 -19 -14 -24l-51 -32v-139c0 -12 -11 -22 -23 -22z" />
    <glyph glyph-name="accidentals.sharp.slashslashslash.stemstem" unicode="&#xe114;" horiz-adv-x="274" 
d="M220 -75c3 1 7 2 10 2c15 0 28 -13 28 -29v-30c0 -12 -7 -22 -18 -26l-20 -8v-144c0 -12 -10 -22 -22 -22s-22 10 -22 22v128l-77 -27v-144c0 -12 -10 -22 -22 -22s-22 10 -22 22v128c-3 -1 -7 -2 -10 -2c-15 0 -29 13 -29 29v30c0 12 8 22 19 26l20 8v53l-17 -6
c-3 -1 -7 -2 -10 -2c-15 0 -28 13 -28 29v42c0 12 8 22 19 26l36 14v53c-3 -1 -7 -2 -10 -2c-15 0 -29 13 -29 29v30c0 12 8 22 19 26l20 8v144c0 12 10 22 22 22s22 -10 22 -22v-128l77 27v144c0 12 10 22 22 22s22 -10 22 -22v-128c3 1 7 2 10 2c15 0 28 -13 28 -29v-30
c0 -12 -7 -22 -18 -26l-20 -8v-53l17 6c3 1 7 2 10 2c15 0 28 -13 28 -29v-42c0 -12 -8 -22 -19 -26l-36 -14v-53zM99 -65v-53l77 27v54zM99 37l77 28v53l-77 -27v-54z" />
    <glyph glyph-name="accidentals.sharp.slashslashslash.stem" unicode="&#xe115;" horiz-adv-x="237" 
d="M119 -323c-12 0 -22 10 -22 22v95l-33 -15c-4 -2 -8 -3 -12 -3c-15 0 -28 12 -28 28v31c0 11 6 20 16 25l57 26v47l-57 -26c-4 -2 -8 -3 -12 -3c-15 0 -28 13 -28 29v52c0 11 7 20 17 25l80 37v47l-33 -15c-4 -2 -8 -3 -12 -3c-15 0 -28 12 -28 28v31c0 11 6 20 16 25
l57 26v115c0 12 10 22 22 22s22 -10 22 -22v-95l33 15c4 2 7 3 11 3c15 0 29 -12 29 -28v-31c0 -11 -7 -20 -17 -25l-56 -26v-47l56 26c4 2 8 3 12 3c15 0 28 -13 28 -29v-52c0 -11 -6 -20 -16 -25l-80 -37v-47l33 15c4 2 7 3 11 3c15 0 29 -12 29 -28v-31
c0 -11 -7 -20 -17 -25l-56 -26v-115c0 -12 -10 -22 -22 -22z" />
    <glyph glyph-name="accidentals.sharp.slashslash.stemstemstem" unicode="&#xe116;" horiz-adv-x="399" 
d="M312 -315c-12 0 -22 10 -22 22v131l-68 -18v-143c0 -12 -10 -22 -22 -22s-22 10 -22 22v131l-68 -18v-143c0 -12 -10 -22 -22 -22s-23 10 -23 22v131l-29 -8c-2 -1 -6 -1 -8 -1c-15 0 -28 13 -28 29v50c0 13 9 24 21 27l44 12v154l-29 -8c-2 -1 -6 -1 -8 -1
c-15 0 -28 12 -28 28v51c0 13 9 24 21 27l44 12v143c0 12 11 22 23 22s22 -10 22 -22v-131l68 18v143c0 12 10 22 22 22s22 -10 22 -22v-131l68 18v143c0 12 10 22 22 22s23 -10 23 -22v-131l29 8c2 1 6 1 8 1c15 0 28 -13 28 -29v-50c0 -13 -9 -24 -21 -27l-44 -12v-154
l29 8c2 1 6 1 8 1c15 0 28 -12 28 -28v-51c0 -13 -9 -24 -21 -27l-44 -12v-143c0 -12 -11 -22 -23 -22zM110 53v-154l68 18v154zM222 83v-154l68 18v154z" />
    <glyph glyph-name="accidentals.natural" unicode="&#xe117;" horiz-adv-x="166" 
d="M-9 375c9 5 18 8 28 8s20 -3 29 -8l-4 -198l99 25h4c11 0 20 -8 20 -19l9 -558c-9 -5 -19 -8 -29 -8s-19 3 -28 8l3 198l-98 -25h-5c-11 0 -19 8 -19 19zM127 109l-84 -21l-3 -197l84 21z" />
    <glyph glyph-name="accidentals.natural.arrowup" unicode="&#xe118;" horiz-adv-x="166" 
d="M147 202c11 0 20 -8 20 -19l9 -558c-9 -5 -19 -8 -29 -8s-19 3 -28 8l3 198l-98 -25h-5c-11 0 -19 8 -19 19c-2 204 -3 407 -5 611c0 13 -5 18 -13 18c-17 0 -48 -24 -76 -40c-2 -1 -4 -2 -6 -2c-7 0 -13 6 -13 13c0 2 0 5 2 7c51 73 88 154 121 236c2 4 5 7 9 7
s8 -3 10 -7c33 -82 69 -163 120 -236c2 -2 2 -5 2 -7c0 -7 -5 -13 -12 -13c-2 0 -4 1 -6 2c-28 16 -60 40 -77 40c-8 0 -12 -5 -12 -18c-1 -84 -1 -167 -2 -251l101 25h4zM127 109l-86 -21l-2 -197l85 21z" />
    <glyph glyph-name="accidentals.natural.arrowdown" unicode="&#xe119;" horiz-adv-x="166" 
d="M-9 375c9 5 18 8 28 8s20 -3 29 -8l-4 -198l99 25h4c11 0 20 -8 20 -19c2 -204 3 -407 5 -611c0 -13 5 -18 13 -18c17 0 48 24 76 40c2 1 4 2 6 2c7 0 13 -6 13 -13c0 -2 -1 -5 -3 -7c-51 -73 -87 -154 -120 -236c-2 -4 -6 -7 -10 -7s-7 3 -9 7c-33 82 -69 163 -120 236
c-2 2 -3 5 -3 7c0 7 6 13 13 13c2 0 4 -1 6 -2c28 -16 59 -40 76 -40c8 0 13 5 13 18c1 84 1 167 2 251l-101 -25h-5c-11 0 -19 8 -19 19zM128 109l-85 -21l-3 -197l86 21z" />
    <glyph glyph-name="accidentals.natural.arrowboth" unicode="&#xe11a;" horiz-adv-x="166" 
d="M167 183c2 -204 3 -407 5 -611c0 -13 5 -18 13 -18c17 0 48 24 76 40c2 1 4 2 6 2c7 0 13 -6 13 -13c0 -2 -1 -5 -3 -7c-51 -73 -87 -154 -120 -236c-2 -4 -6 -7 -10 -7s-7 3 -9 7c-33 82 -69 163 -120 236c-2 2 -3 5 -3 7c0 7 6 13 13 13c2 0 4 -1 6 -2
c28 -16 59 -40 76 -40c8 0 13 5 13 18c1 84 1 167 2 251l-101 -25h-5c-11 0 -19 8 -19 19c-2 204 -3 407 -5 611c0 13 -5 18 -13 18c-17 0 -48 -24 -76 -40c-2 -1 -4 -2 -6 -2c-7 0 -13 6 -13 13c0 2 0 5 2 7c51 73 88 154 121 236c2 4 5 7 9 7s8 -3 10 -7
c33 -82 69 -163 120 -236c2 -2 2 -5 2 -7c0 -7 -5 -13 -12 -13c-2 0 -4 1 -6 2c-28 16 -60 40 -77 40c-8 0 -12 -5 -12 -18c-1 -84 -1 -167 -2 -251l101 25h4c11 0 20 -8 20 -19zM128 109l-87 -21l-2 -197l87 21z" />
    <glyph glyph-name="accidentals.flat" unicode="&#xe11b;" horiz-adv-x="200" 
d="M33 35l-2 -60v-11c0 -21 2 -43 5 -64c42 38 87 81 87 138c0 32 -13 63 -41 63c-31 0 -48 -32 -49 -66zM-17 -141l-15 587c10 6 21 8 32 8s22 -2 32 -8l-9 -337c25 26 59 40 95 40c50 0 82 -51 82 -105c0 -77 -80 -117 -137 -169c-18 -17 -26 -48 -52 -48
c-16 0 -28 15 -28 32z" />
    <glyph glyph-name="accidentals.flat.arrowup" unicode="&#xe11c;" horiz-adv-x="200" 
d="M33 35l-2 -60v-11c0 -21 2 -43 5 -64c42 38 87 80 87 137c0 32 -13 64 -41 64c-31 0 -48 -32 -49 -66zM-17 -141l-9 570c0 13 -5 18 -13 18c-17 0 -48 -25 -76 -41c-2 -1 -4 -2 -6 -2c-7 0 -13 6 -13 13c0 2 0 6 2 8c51 73 89 153 122 235c2 5 6 7 10 7s8 -2 10 -7
c33 -82 71 -162 122 -235c2 -2 2 -6 2 -8c0 -7 -6 -13 -13 -13c-2 0 -4 1 -6 2c-28 16 -59 41 -76 41c-8 0 -13 -5 -13 -18c-2 -107 -3 -213 -5 -320c26 26 61 40 97 40c50 0 82 -51 82 -105c0 -77 -80 -117 -137 -169c-18 -17 -26 -48 -52 -48c-16 0 -28 15 -28 32z" />
    <glyph glyph-name="accidentals.flat.arrowdown" unicode="&#xe11d;" horiz-adv-x="200" 
d="M33 35l-2 -60v-11c0 -21 2 -43 5 -64c42 38 87 81 87 138c0 32 -13 63 -41 63c-31 0 -48 -32 -49 -66zM21 -189v-112c0 -13 5 -18 13 -18c17 0 49 23 77 39c9 5 19 -6 13 -15c-51 -73 -82 -157 -115 -240c-1 -3 -4 -5 -7 -5s-7 2 -8 5c-33 83 -63 167 -114 240
c-1 2 -2 4 -2 6c0 7 8 13 15 9c28 -16 60 -39 77 -39c8 0 13 5 13 18v160l-15 587c10 6 21 8 32 8s22 -2 32 -8l-9 -337c25 26 59 40 95 40c50 0 82 -51 82 -105c0 -77 -80 -117 -137 -169c-20 -18 -42 -37 -42 -64z" />
    <glyph glyph-name="accidentals.flat.arrowboth" unicode="&#xe11e;" horiz-adv-x="200" 
d="M33 35l-2 -60v-11c0 -21 2 -43 5 -64c42 38 87 80 87 137c0 32 -13 64 -41 64c-31 0 -48 -32 -49 -66zM21 -189v-112c0 -13 5 -18 13 -18c17 0 49 23 77 39c9 5 19 -6 13 -15c-51 -73 -82 -157 -115 -240c-1 -3 -4 -5 -7 -5s-7 2 -8 5c-33 83 -63 167 -114 240
c-6 9 4 20 13 15c28 -16 60 -39 77 -39c8 0 13 5 13 18v160l-9 570c0 13 -5 18 -13 18c-17 0 -48 -25 -76 -41c-2 -1 -4 -2 -6 -2c-7 0 -13 6 -13 13c0 2 0 6 2 8c51 73 89 153 122 235c2 5 6 7 10 7s8 -2 10 -7c33 -82 71 -162 122 -235c2 -2 2 -6 2 -8
c0 -7 -6 -13 -13 -13c-2 0 -4 1 -6 2c-28 16 -59 41 -76 41c-8 0 -13 -5 -13 -18c-2 -107 -3 -213 -5 -320c26 26 61 40 97 40c50 0 82 -51 82 -105c0 -77 -80 -117 -137 -169c-20 -18 -42 -37 -42 -64z" />
    <glyph glyph-name="accidentals.flat.slash" unicode="&#xe11f;" horiz-adv-x="200" 
d="M33 35l-2 -60v-11c0 -21 2 -43 5 -64c42 38 87 81 87 138c0 32 -13 63 -41 63c-31 0 -48 -32 -49 -66zM100 311c12 0 24 -9 24 -23c0 -9 -5 -18 -13 -22l-85 -42l-3 -115c25 26 59 40 95 40c50 0 82 -51 82 -105c0 -77 -80 -117 -137 -169c-18 -17 -26 -48 -52 -48
c-16 0 -28 15 -28 32l-8 339l-64 -32c-3 -2 -7 -2 -11 -2c-12 0 -24 9 -24 23c0 9 5 18 13 22l84 42l-5 195c10 6 21 8 32 8s22 -2 32 -8l-5 -168l62 31c3 2 7 2 11 2z" />
    <glyph glyph-name="accidentals.flat.slashslash" unicode="&#xe120;" horiz-adv-x="200" 
d="M33 35l-2 -60v-11c0 -21 2 -43 5 -64c42 38 87 81 87 138c0 32 -13 63 -41 63c-31 0 -48 -32 -49 -66zM100 272c12 0 24 -10 24 -24c0 -9 -5 -17 -13 -21l-86 -43l-2 -75c25 26 59 40 95 40c50 0 82 -51 82 -105c0 -77 -80 -117 -137 -169c-18 -17 -26 -48 -52 -48
c-16 0 -28 15 -28 32l-7 300l-65 -32c-3 -2 -7 -3 -11 -3c-12 0 -24 10 -24 24c0 9 5 17 13 21l85 43l-1 64l-62 -31c-3 -2 -7 -2 -11 -2c-12 0 -24 10 -24 24c0 9 5 17 13 21l82 41l-3 117c10 6 21 8 32 8s22 -2 32 -8l-3 -88l60 30c3 2 7 3 11 3c12 0 24 -10 24 -24
c0 -9 -5 -18 -13 -22l-83 -41l-2 -66l63 31c3 2 7 3 11 3z" />
    <glyph glyph-name="accidentals.mirroredflat.flat" unicode="&#xe121;" horiz-adv-x="399" 
d="M211 -173h-22c-26 0 -34 31 -52 48c-57 52 -137 92 -137 169c0 54 32 105 82 105c36 0 70 -14 95 -40l-9 337c10 6 21 8 32 8s22 -2 32 -8l-9 -337c25 26 59 40 95 40c50 0 82 -51 82 -105c0 -77 -80 -117 -137 -169c-18 -17 -26 -48 -52 -48zM167 35
c-1 34 -18 66 -49 66c-28 0 -41 -32 -41 -64c0 -57 45 -99 87 -137c3 21 5 43 5 64v11zM233 35l-2 -60v-11c0 -21 2 -43 5 -64c42 38 87 80 87 137c0 32 -13 64 -41 64c-31 0 -48 -32 -49 -66z" />
    <glyph glyph-name="accidentals.mirroredflat" unicode="&#xe122;" horiz-adv-x="200" 
d="M129 35c-1 34 -18 66 -49 66c-28 0 -41 -31 -41 -63c0 -57 45 -100 87 -138c3 21 5 43 5 64v11zM179 -141c0 -17 -12 -32 -28 -32c-26 0 -34 31 -52 48c-57 52 -137 92 -137 169c0 54 31 105 81 105c36 0 71 -14 96 -40l-9 337c10 6 21 8 32 8s21 -2 31 -8z" />
    <glyph glyph-name="accidentals.mirroredflat.backslash" unicode="&#xe123;" horiz-adv-x="200" 
d="M67 35c-1 34 -18 66 -49 66c-28 0 -41 -31 -41 -63c0 -57 45 -100 87 -138c3 21 5 43 5 64v11zM0 311c4 0 8 0 11 -2l62 -31l-5 168c10 6 21 8 32 8s22 -2 32 -8l-5 -195l84 -42c8 -4 13 -13 13 -22c0 -14 -12 -23 -24 -23c-4 0 -8 0 -11 2l-64 32l-8 -339
c0 -17 -12 -32 -28 -32c-26 0 -34 31 -52 48c-57 52 -137 92 -137 169c0 54 32 105 82 105c36 0 70 -14 95 -40l-3 115l-85 42c-8 4 -13 13 -13 22c0 14 12 23 24 23z" />
    <glyph glyph-name="accidentals.flatflat" unicode="&#xe124;" horiz-adv-x="362" 
d="M195 35l-1 -60c0 -4 -1 -7 -1 -11c0 -21 2 -43 5 -64c41 38 81 81 81 137c0 31 -11 64 -38 64c-30 0 -45 -33 -46 -66zM21 35l-1 -60v-11c0 -23 2 -46 5 -68c37 39 67 87 67 141c0 30 -6 64 -32 64c-28 0 -38 -34 -39 -66zM145 -141l-2 104c-25 -31 -59 -58 -87 -88
c-16 -17 -21 -48 -45 -48c-16 0 -28 15 -28 32l-15 587c10 6 21 8 32 8s22 -2 32 -8l-9 -337c16 25 43 40 73 40c16 0 31 -5 43 -15l-8 312c10 6 20 8 31 8s22 -2 32 -8l-8 -337c24 25 57 40 92 40c51 0 84 -50 84 -104c0 -77 -80 -118 -137 -170c-18 -17 -26 -48 -52 -48
c-16 0 -28 15 -28 32z" />
    <glyph glyph-name="accidentals.flatflat.slash" unicode="&#xe125;" horiz-adv-x="362" 
d="M195 35l-1 -60c0 -4 -1 -7 -1 -11c0 -21 2 -43 5 -64c41 38 81 81 81 137c0 31 -11 64 -38 64c-30 0 -45 -33 -46 -66zM21 35l-1 -60v-11c0 -23 2 -46 5 -68c37 39 67 87 67 141c0 30 -6 64 -32 64c-28 0 -38 -34 -39 -66zM136 250l-111 -63l-2 -78c16 25 43 40 73 40
c16 0 31 -5 43 -15zM-129 106c-16 0 -32 12 -32 31c0 11 7 22 17 28l118 67l-6 214c10 6 21 8 32 8s22 -2 32 -8l-5 -185l107 61l-3 124c10 6 20 8 31 8s22 -2 32 -8l-2 -92l64 36c5 3 11 4 16 4c16 0 32 -12 32 -31c0 -11 -7 -22 -17 -28l-97 -55l-4 -171
c24 25 57 40 92 40c51 0 84 -50 84 -104c0 -77 -80 -118 -137 -170c-18 -17 -26 -48 -52 -48c-16 0 -28 15 -28 32l-2 104c-25 -31 -59 -58 -87 -88c-16 -17 -21 -48 -45 -48c-16 0 -28 15 -28 32l-7 301l-89 -50c-5 -3 -11 -4 -16 -4z" />
    <glyph glyph-name="accidentals.doublesharp" unicode="&#xe126;" horiz-adv-x="249" 
d="M156 0c22 -22 55 -27 86 -27c8 0 14 -6 14 -14l8 -84c1 -8 -5 -14 -13 -14h-1l-84 8c-8 1 -14 6 -14 14c0 31 -5 64 -27 86c-22 -22 -27 -55 -27 -86c0 -8 -6 -13 -14 -14l-84 -8h-1c-8 0 -14 6 -13 14l8 84c0 8 6 14 14 14c31 0 64 5 86 27c-22 22 -55 27 -86 27
c-8 0 -14 6 -14 14l-8 84c-1 8 5 14 13 14h1l84 -8c8 -1 14 -6 14 -14c0 -31 5 -64 27 -86c22 22 27 55 27 86c0 8 6 13 14 14l84 8h1c8 0 14 -6 13 -14l-8 -84c0 -8 -6 -14 -14 -14c-31 0 -64 -5 -86 -27z" />
    <glyph glyph-name="accidentals.rightparen" unicode="&#xe127;" horiz-adv-x="156" 
d="M97 0c0 85 -11 172 -60 241c-2 3 -3 6 -3 9c0 9 8 16 16 16c5 0 10 -2 13 -7c54 -77 90 -165 90 -259s-36 -182 -90 -259c-3 -5 -8 -7 -13 -7c-8 0 -16 7 -16 16c0 3 1 6 3 9c49 69 60 156 60 241z" />
    <glyph glyph-name="accidentals.leftparen" unicode="&#xe128;" horiz-adv-x="0" 
d="M-97 0c0 -85 11 -172 60 -241c2 -3 3 -6 3 -9c0 -9 -8 -16 -16 -16c-5 0 -10 2 -13 7c-54 77 -90 165 -90 259s36 182 90 259c3 5 8 7 13 7c8 0 16 -7 16 -16c0 -3 -1 -6 -3 -9c-49 -69 -60 -156 -60 -241z" />
    <glyph glyph-name="arrowheads.open.01" unicode="&#xe129;" horiz-adv-x="25" 
d="M-250 100c0 13 11 25 25 25c7 0 14 -2 19 -8c53 -58 128 -92 206 -92c17 0 25 -12 25 -25s-8 -25 -25 -25c-78 0 -153 -34 -206 -92c-5 -6 -12 -8 -19 -8c-14 0 -25 12 -25 25c0 6 3 13 7 18c33 36 72 64 116 82c-44 18 -83 46 -116 82c-4 5 -7 12 -7 18z" />
    <glyph glyph-name="arrowheads.open.0M1" unicode="&#xe12a;" horiz-adv-x="249" 
d="M250 100c0 -6 -3 -13 -7 -18c-33 -36 -72 -64 -116 -82c44 -18 83 -46 116 -82c4 -5 7 -12 7 -18c0 -13 -11 -25 -25 -25c-7 0 -14 2 -19 8c-53 58 -128 92 -206 92c-17 0 -25 12 -25 25s8 25 25 25c78 0 153 34 206 92c5 6 12 8 19 8c14 0 25 -12 25 -25z" />
    <glyph glyph-name="arrowheads.open.11" unicode="&#xe12b;" horiz-adv-x="124" 
d="M-100 -250c-13 0 -25 11 -25 25c0 7 2 14 8 19c58 53 92 128 92 206c0 17 12 25 25 25s25 -8 25 -25c0 -78 34 -153 92 -206c6 -5 8 -12 8 -19c0 -14 -12 -25 -25 -25c-6 0 -13 3 -18 7c-36 33 -64 72 -82 116c-18 -44 -46 -83 -82 -116c-5 -4 -12 -7 -18 -7z" />
    <glyph glyph-name="arrowheads.open.1M1" unicode="&#xe12c;" horiz-adv-x="124" 
d="M-100 250c6 0 13 -3 18 -7c36 -33 64 -72 82 -116c18 44 46 83 82 116c5 4 12 7 18 7c13 0 25 -11 25 -25c0 -7 -2 -14 -8 -19c-58 -53 -92 -128 -92 -206c0 -17 -12 -25 -25 -25s-25 8 -25 25c0 78 -34 153 -92 206c-6 5 -8 12 -8 19c0 14 12 25 25 25z" />
    <glyph glyph-name="arrowheads.close.01" unicode="&#xe12d;" horiz-adv-x="0" 
d="M-236 -125c-8 0 -14 7 -14 14c0 1 1 3 1 4c10 35 15 71 15 107s-5 72 -15 107c0 1 -1 3 -1 4c0 7 6 14 14 14c4 0 8 -2 11 -5c37 -45 167 -106 225 -106c9 0 14 -7 14 -14s-5 -14 -14 -14c-58 0 -188 -61 -225 -106c-3 -3 -7 -5 -11 -5z" />
    <glyph glyph-name="arrowheads.close.0M1" unicode="&#xe12e;" horiz-adv-x="249" 
d="M236 -125c-4 0 -8 2 -11 5c-37 45 -167 106 -225 106c-9 0 -14 7 -14 14s5 14 14 14c58 0 188 61 225 106c3 3 7 5 11 5c8 0 14 -7 14 -14c0 -1 -1 -3 -1 -4c-10 -35 -15 -71 -15 -107s5 -72 15 -107c0 -1 1 -3 1 -4c0 -7 -6 -14 -14 -14z" />
    <glyph glyph-name="arrowheads.close.11" unicode="&#xe12f;" horiz-adv-x="124" 
d="M125 -236c0 -8 -7 -14 -14 -14c-1 0 -3 1 -4 1c-35 10 -71 15 -107 15s-72 -5 -107 -15c-1 0 -3 -1 -4 -1c-7 0 -14 6 -14 14c0 4 2 8 5 11c45 37 106 167 106 225c0 9 7 14 14 14s14 -5 14 -14c0 -58 61 -188 106 -225c3 -3 5 -7 5 -11z" />
    <glyph glyph-name="arrowheads.close.1M1" unicode="&#xe130;" horiz-adv-x="124" 
d="M-125 236c0 8 7 14 14 14c1 0 3 -1 4 -1c35 -10 71 -15 107 -15s72 5 107 15c1 0 3 1 4 1c7 0 14 -6 14 -14c0 -4 -2 -8 -5 -11c-45 -37 -106 -167 -106 -225c0 -9 -7 -14 -14 -14s-14 5 -14 14c0 58 -61 188 -106 225c-3 3 -5 7 -5 11z" />
    <glyph glyph-name="dots.dot" unicode="&#xe131;" horiz-adv-x="109" 
d="M0 0c0 30 25 55 55 55s54 -25 54 -55s-24 -55 -54 -55s-55 25 -55 55z" />
    <glyph glyph-name="scripts.ufermata" unicode="&#xe132;" horiz-adv-x="336" 
d="M-73 50c0 41 32 73 73 73s73 -32 73 -73s-32 -74 -73 -74s-73 33 -73 74zM0 368c160 0 337 -179 337 -372c0 -12 -11 -19 -23 -19c-11 0 -22 6 -25 23c-26 145 -144 257 -289 257s-263 -112 -289 -257c-3 -17 -14 -23 -25 -23c-12 0 -23 7 -23 19c0 193 178 372 337 372z
" />
    <glyph glyph-name="scripts.dfermata" unicode="&#xe133;" horiz-adv-x="336" 
d="M-73 -50c0 41 32 74 73 74s73 -33 73 -74s-32 -73 -73 -73s-73 32 -73 73zM0 -368c-159 0 -337 179 -337 372c0 12 11 19 23 19c11 0 22 -6 25 -23c26 -145 144 -257 289 -257s263 112 289 257c3 17 14 23 25 23c12 0 23 -7 23 -19c0 -193 -177 -372 -337 -372z" />
    <glyph glyph-name="scripts.ushortfermata" unicode="&#xe134;" horiz-adv-x="249" 
d="M-100 76c0 42 34 75 76 75s76 -33 76 -75s-34 -76 -76 -76s-76 34 -76 76zM-226 0c-14 0 -24 11 -24 24c0 3 1 7 2 10l226 502c4 9 13 14 22 14s18 -5 22 -14l226 -502c1 -3 2 -7 2 -10c0 -13 -10 -24 -24 -24h-48c-9 0 -17 5 -21 14l-182 399l-179 -399
c-4 -9 -13 -14 -22 -14z" />
    <glyph glyph-name="scripts.dshortfermata" unicode="&#xe135;" horiz-adv-x="249" 
d="M100 -76c0 -42 -34 -75 -76 -75s-76 33 -76 75s34 76 76 76s76 -34 76 -76zM226 0c14 0 24 -11 24 -24c0 -3 -1 -7 -2 -10l-226 -502c-4 -9 -13 -14 -22 -14s-18 5 -22 14l-226 502c-1 3 -2 7 -2 10c0 13 10 24 24 24h48c9 0 17 -5 21 -14l182 -399l179 399
c4 9 13 14 22 14z" />
    <glyph glyph-name="scripts.ulongfermata" unicode="&#xe136;" horiz-adv-x="312" 
d="M-76 76c0 42 34 75 76 75s76 -33 76 -75s-34 -76 -76 -76s-76 34 -76 76zM-298 375h596c8 0 14 -6 14 -14v-337c0 -13 -10 -24 -23 -24s-24 11 -24 24v244h-530v-244c0 -13 -11 -24 -24 -24s-23 11 -23 24v337c0 8 6 14 14 14z" />
    <glyph glyph-name="scripts.dlongfermata" unicode="&#xe137;" horiz-adv-x="312" 
d="M-76 -76c0 42 34 76 76 76s76 -34 76 -76s-34 -75 -76 -75s-76 33 -76 75zM-298 -375c-8 0 -14 6 -14 14v337c0 13 10 24 23 24s24 -11 24 -24v-244h530v244c0 13 11 24 24 24s23 -11 23 -24v-337c0 -8 -6 -14 -14 -14h-596z" />
    <glyph glyph-name="scripts.uverylongfermata" unicode="&#xe138;" horiz-adv-x="374" 
d="M-60 60c0 33 27 60 60 60s60 -27 60 -60s-27 -60 -60 -60s-60 27 -60 60zM-236 225h472c8 0 14 -6 14 -14v-187c0 -13 -11 -24 -24 -24s-24 11 -24 24v126h-404v-126c0 -13 -11 -24 -24 -24s-24 11 -24 24v187c0 8 6 14 14 14zM-361 400h722c8 0 14 -6 14 -14v-362
c0 -13 -11 -24 -24 -24s-24 11 -24 24v251h-654v-251c0 -13 -11 -24 -24 -24s-24 11 -24 24v362c0 8 6 14 14 14z" />
    <glyph glyph-name="scripts.dverylongfermata" unicode="&#xe139;" horiz-adv-x="374" 
d="M-60 -60c0 33 27 60 60 60s60 -27 60 -60s-27 -60 -60 -60s-60 27 -60 60zM-236 -225c-8 0 -14 6 -14 14v187c0 13 11 24 24 24s24 -11 24 -24v-126h404v126c0 13 11 24 24 24s24 -11 24 -24v-187c0 -8 -6 -14 -14 -14h-472zM-361 -400c-8 0 -14 6 -14 14v362
c0 13 11 24 24 24s24 -11 24 -24v-251h654v251c0 13 11 24 24 24s24 -11 24 -24v-362c0 -8 -6 -14 -14 -14h-722z" />
    <glyph glyph-name="scripts.thumb" unicode="&#xe13a;" horiz-adv-x="99" 
d="M24 -125l1 -50c0 -14 -11 -25 -25 -25s-25 11 -25 25l1 50v3c-47 13 -76 66 -76 122c0 65 40 125 100 125s100 -60 100 -125c0 -56 -29 -109 -76 -122v-3zM45 0c0 44 -8 91 -45 91s-45 -47 -45 -91s8 -91 45 -91s45 47 45 91z" />
    <glyph glyph-name="scripts.sforzato" unicode="&#xe13b;" horiz-adv-x="224" 
d="M-208 81c-10 2 -17 12 -17 22c0 12 10 22 22 22c2 0 4 -1 6 -1l400 -102c15 0 22 -7 22 -22s-7 -22 -22 -22l-400 -102c-2 0 -4 -1 -6 -1c-12 0 -22 10 -22 22c0 10 7 20 17 22l241 61l139 20l-139 20z" />
    <glyph glyph-name="scripts.espr" unicode="&#xe13c;" horiz-adv-x="474" 
d="M-47 81l-238 -61l-141 -20l141 -20l238 -61c10 -3 17 -12 17 -22c0 -12 -10 -22 -22 -22c-2 0 -4 1 -6 1l-395 102c-15 0 -22 7 -22 22s7 22 22 22l395 102c2 0 4 1 6 1c12 0 22 -10 22 -22c0 -10 -7 -19 -17 -22zM47 81c-10 3 -17 12 -17 22c0 12 10 22 22 22
c2 0 4 -1 6 -1l395 -102c15 0 22 -7 22 -22s-7 -22 -22 -22l-395 -102c-2 0 -4 -1 -6 -1c-12 0 -22 10 -22 22c0 10 7 19 17 22l238 61l141 20l-141 20z" />
    <glyph glyph-name="scripts.staccato" unicode="&#xe13d;" horiz-adv-x="49" 
d="M-50 0c0 28 22 50 50 50s50 -22 50 -50s-22 -50 -50 -50s-50 22 -50 50z" />
    <glyph glyph-name="scripts.ustaccatissimo" unicode="&#xe13e;" horiz-adv-x="56" 
d="M-16 0l-41 200c-1 3 -1 5 -1 8c0 27 27 49 58 49s58 -22 58 -49c0 -3 0 -5 -1 -8l-41 -200c-2 -8 -8 -16 -16 -16s-14 8 -16 16z" />
    <glyph glyph-name="scripts.dstaccatissimo" unicode="&#xe13f;" horiz-adv-x="56" 
d="M-16 0c2 8 8 16 16 16s14 -8 16 -16l41 -200c1 -3 1 -5 1 -8c0 -27 -27 -49 -58 -49s-58 22 -58 49c0 3 0 5 1 8z" />
    <glyph glyph-name="scripts.tenuto" unicode="&#xe140;" horiz-adv-x="150" 
d="M125 -25h-250c-14 0 -25 11 -25 25s11 25 25 25h250c14 0 25 -11 25 -25s-11 -25 -25 -25z" />
    <glyph glyph-name="scripts.uportato" unicode="&#xe141;" horiz-adv-x="150" 
d="M-48 173c0 27 21 48 48 48s48 -21 48 -48s-21 -48 -48 -48s-48 21 -48 48zM128 -22h-256c-12 0 -22 10 -22 22s10 22 22 22h256c12 0 22 -10 22 -22s-10 -22 -22 -22z" />
    <glyph glyph-name="scripts.dportato" unicode="&#xe142;" horiz-adv-x="150" 
d="M-48 -173c0 27 21 48 48 48s48 -21 48 -48s-21 -48 -48 -48s-48 21 -48 48zM128 22c12 0 22 -10 22 -22s-10 -22 -22 -22h-256c-12 0 -22 10 -22 22s10 22 22 22h256z" />
    <glyph glyph-name="scripts.umarcato" unicode="&#xe143;" horiz-adv-x="124" 
d="M-109 0c-9 0 -16 8 -16 16c0 2 0 4 1 6l109 244c3 6 9 9 15 9s12 -3 15 -9l109 -244c1 -2 1 -4 1 -6c0 -8 -7 -16 -16 -16h-64c-6 0 -12 3 -15 9l-63 138l-62 -138c-3 -6 -8 -9 -14 -9z" />
    <glyph glyph-name="scripts.dmarcato" unicode="&#xe144;" horiz-adv-x="124" 
d="M109 0c9 0 16 -8 16 -16c0 -2 0 -4 -1 -6l-109 -244c-3 -6 -9 -9 -15 -9s-12 3 -15 9l-109 244c-1 2 -1 4 -1 6c0 8 7 16 16 16h64c6 0 12 -3 15 -9l63 -138l62 138c3 6 8 9 14 9z" />
    <glyph glyph-name="scripts.open" unicode="&#xe145;" horiz-adv-x="99" 
d="M100 0c0 -65 -40 -125 -100 -125s-100 60 -100 125s40 125 100 125s100 -60 100 -125zM55 0c0 45 -16 91 -55 91s-55 -46 -55 -91s16 -91 55 -91s55 46 55 91z" />
    <glyph glyph-name="scripts.halfopen" unicode="&#xe146;" horiz-adv-x="99" 
d="M-125 -173c-9 0 -17 8 -17 17c0 4 2 7 4 10l57 72c-12 21 -19 47 -19 74c0 65 40 125 100 125c23 0 44 -9 60 -24l52 66c3 4 8 6 13 6c9 0 17 -8 17 -17c0 -4 -2 -7 -4 -10l-57 -72c12 -21 19 -47 19 -74c0 -65 -40 -125 -100 -125c-23 0 -44 9 -60 24l-52 -66
c-3 -4 -8 -6 -13 -6zM-51 -37l87 109c-9 12 -20 19 -36 19c-39 0 -55 -46 -55 -91c0 -12 1 -25 4 -37zM-36 -72c9 -12 20 -19 36 -19c39 0 55 46 55 91c0 12 -1 25 -4 37z" />
    <glyph glyph-name="scripts.halfopenvertical" unicode="&#xe147;" horiz-adv-x="99" 
d="M17 123c51 -10 83 -64 83 -123s-32 -113 -83 -123v-64c0 -9 -8 -17 -17 -17s-17 8 -17 17v64c-51 10 -83 64 -83 123s32 113 83 123v64c0 9 8 17 17 17s17 -8 17 -17v-64zM17 -88c27 11 38 50 38 88s-11 77 -38 88v-176zM-17 -88v176c-27 -11 -38 -50 -38 -88
s11 -77 38 -88z" />
    <glyph glyph-name="scripts.stopped" unicode="&#xe148;" horiz-adv-x="137" 
d="M0 -137c-18 0 -32 13 -32 31v74h-74c-18 0 -32 14 -32 32s14 32 32 32h74v74c0 18 14 32 32 32s32 -14 32 -32v-74h74c18 0 32 -14 32 -32s-14 -32 -32 -32h-74v-74c0 -18 -14 -31 -32 -31z" />
    <glyph glyph-name="scripts.upbow" unicode="&#xe149;" horiz-adv-x="162" 
d="M119 504c3 9 11 16 21 16c12 0 23 -10 23 -22c0 -2 0 -5 -1 -7l-140 -469c0 -15 -7 -22 -22 -22s-22 7 -22 22l-140 469c-1 2 -1 5 -1 7c0 12 11 22 23 22c10 0 18 -7 21 -16l84 -283l35 -159l35 159z" />
    <glyph glyph-name="scripts.downbow" unicode="&#xe14a;" horiz-adv-x="187" 
d="M-173 333h346c8 0 15 -6 15 -14v-300c0 -11 -9 -19 -20 -19s-19 8 -19 19v181h-298v-181c0 -11 -8 -19 -19 -19s-19 8 -19 19v300c0 8 6 14 14 14z" />
    <glyph glyph-name="scripts.reverseturn" unicode="&#xe14b;" horiz-adv-x="273" 
d="M137 132c74 0 136 -58 136 -132c0 -70 -46 -132 -112 -132c-37 0 -72 22 -72 56c0 37 29 56 57 56c21 0 40 -11 50 -33c24 4 45 25 45 53c0 29 -26 49 -56 49c-64 0 -111 -52 -159 -95s-99 -86 -163 -86c-74 0 -136 58 -136 132c0 70 46 132 112 132c37 0 72 -22 72 -56
c0 -37 -29 -56 -57 -56c-21 0 -40 11 -50 33c-24 -4 -45 -25 -45 -53c0 -29 26 -49 56 -49c64 0 111 52 159 95s99 86 163 86z" />
    <glyph glyph-name="scripts.turn" unicode="&#xe14c;" horiz-adv-x="273" 
d="M137 -132c-64 0 -115 43 -163 86s-95 95 -159 95c-30 0 -56 -20 -56 -49c0 -28 21 -49 45 -53c10 22 29 33 50 33c28 0 57 -19 57 -56c0 -34 -35 -56 -72 -56c-66 0 -112 62 -112 132c0 74 62 132 136 132c64 0 115 -43 163 -86s95 -95 159 -95c30 0 56 20 56 49
c0 28 -21 49 -45 53c-10 -22 -29 -33 -50 -33c-28 0 -57 19 -57 56c0 34 35 56 72 56c66 0 112 -62 112 -132c0 -74 -62 -132 -136 -132z" />
    <glyph glyph-name="scripts.trill" unicode="&#xe14d;" horiz-adv-x="212" 
d="M-290 228c0 -20 16 -27 36 -27c38 0 69 14 100 28l3 17c-22 17 -48 28 -78 28c-29 0 -61 -14 -61 -46zM-26 105c0 -62 -46 -115 -98 -115c-39 0 -56 43 -56 90c0 14 1 28 4 41l15 72c-30 -12 -61 -23 -99 -23c-36 0 -62 18 -62 52c0 53 50 84 99 84c30 0 57 -9 80 -23
l45 227c6 -3 13 -5 20 -5c22 0 48 16 68 35l-53 -262l63 34c26 14 52 21 74 21c28 0 50 -10 62 -27c18 17 43 26 67 26c38 0 73 -22 73 -73c0 -47 -28 -93 -67 -93c-26 0 -40 22 -40 49c0 42 31 65 62 65h1c-8 15 -22 21 -37 21c-22 0 -46 -14 -51 -38l-54 -273
c-11 7 -25 11 -39 11s-29 -4 -43 -11l54 273c0 2 1 3 1 5c0 14 -12 24 -28 24c-7 0 -16 -2 -24 -7l-81 -45l-5 -23c26 -32 49 -69 49 -112zM-89 39c21 0 31 35 31 61c0 27 -11 50 -26 71l-4 -20c-4 -19 -15 -60 -15 -87c0 -15 4 -25 14 -25z" />
    <glyph glyph-name="scripts.upedalheel" unicode="&#xe14e;" horiz-adv-x="124" 
d="M0 -77c43 0 77 34 77 77v143c0 13 11 24 24 24s24 -11 24 -24v-143c0 -69 -56 -125 -125 -125s-125 56 -125 125v143c0 13 11 24 24 24s24 -11 24 -24v-143c0 -43 34 -77 77 -77z" />
    <glyph glyph-name="scripts.dpedalheel" unicode="&#xe14f;" horiz-adv-x="124" 
d="M0 77c-43 0 -77 -34 -77 -77v-143c0 -13 -11 -24 -24 -24s-24 11 -24 24v143c0 69 56 125 125 125s125 -56 125 -125v-143c0 -13 -11 -24 -24 -24s-24 11 -24 24v143c0 43 -34 77 -77 77z" />
    <glyph glyph-name="scripts.upedaltoe" unicode="&#xe150;" horiz-adv-x="124" 
d="M78 358c3 10 13 17 23 17c13 0 24 -11 24 -24c0 -2 0 -5 -1 -7l-100 -320c0 -16 -8 -24 -24 -24s-24 8 -24 24l-100 320c-1 2 -1 5 -1 7c0 13 11 24 24 24c10 0 20 -7 23 -17l60 -194l18 -97l18 97z" />
    <glyph glyph-name="scripts.dpedaltoe" unicode="&#xe151;" horiz-adv-x="124" 
d="M78 -358l-60 194l-18 97l-18 -97l-60 -194c-3 -10 -13 -17 -23 -17c-13 0 -24 11 -24 24c0 2 0 5 1 7l100 320c0 16 8 24 24 24s24 -8 24 -24l100 -320c1 -2 1 -5 1 -7c0 -13 -11 -24 -24 -24c-10 0 -20 7 -23 17z" />
    <glyph glyph-name="scripts.flageolet" unicode="&#xe152;" horiz-adv-x="133" 
d="M0 133c74 0 133 -59 133 -133s-59 -133 -133 -133s-133 59 -133 133s59 133 133 133zM0 105c-58 0 -105 -47 -105 -105s47 -105 105 -105s105 47 105 105s-47 105 -105 105z" />
    <glyph glyph-name="scripts.segno" unicode="&#xe153;" horiz-adv-x="249" 
d="M-198 -64c0 18 15 33 33 33s33 -15 33 -33s-15 -32 -33 -32s-33 14 -33 32zM132 64c0 18 15 32 33 32s33 -14 33 -32s-15 -33 -33 -33s-33 15 -33 33zM-38 -227c0 37 19 62 58 62c42 0 61 -33 61 -66c0 -28 -13 -57 -39 -67c9 -26 33 -44 62 -44c35 0 61 32 61 68
c0 97 -78 167 -165 218l-185 -319h-65l201 346c-103 59 -201 135 -201 246c0 87 64 158 146 158c79 0 142 -68 142 -148c0 -37 -19 -62 -58 -62c-42 0 -61 33 -61 66c0 28 13 57 39 67c-9 26 -33 44 -62 44c-35 0 -61 -32 -61 -68c0 -97 78 -167 165 -218l185 319h65
l-201 -346c103 -59 201 -135 201 -246c0 -87 -64 -158 -146 -158c-79 0 -142 68 -142 148z" />
    <glyph glyph-name="scripts.varsegno" unicode="&#xe154;" horiz-adv-x="312" 
d="M-287 -791c0 36 26 67 67 67c48 0 74 -37 74 -75c0 -21 -8 -42 -25 -56c62 -57 141 -96 238 -96c82 0 169 39 169 129c0 65 -58 121 -118 163l-154 108l-153 107c-75 52 -125 133 -125 211c0 67 42 125 90 151c-55 51 -90 118 -90 183c0 67 42 124 90 150
c-55 51 -90 118 -90 183c0 67 42 126 90 151c-53 51 -83 119 -83 188c0 44 12 89 39 128c49 71 133 102 219 102c16 0 33 -1 49 -3c113 -15 213 -78 277 -172c7 -12 10 -25 10 -37c0 -36 -26 -67 -67 -67c-48 0 -74 37 -74 75c0 21 8 42 25 56c-62 57 -141 96 -238 96
c-82 0 -169 -39 -169 -129c0 -65 58 -121 118 -163l154 -108l153 -107c75 -52 125 -133 125 -211c0 -67 -42 -125 -90 -151c55 -51 90 -118 90 -183c0 -67 -42 -124 -90 -150c55 -51 90 -118 90 -183c0 -67 -42 -126 -90 -151c53 -51 83 -119 83 -188
c0 -44 -12 -89 -39 -128c-49 -71 -133 -102 -219 -102c-16 0 -33 1 -49 3c-113 15 -213 78 -277 172c-7 12 -10 25 -10 37zM217 126c28 0 56 22 56 53c0 53 -83 112 -155 162l-154 108c-61 43 -131 92 -181 92c-28 0 -56 -23 -56 -54c0 -53 83 -112 155 -162l153 -107
c61 -43 132 -92 182 -92zM217 -541c28 0 56 23 56 54c0 53 -83 112 -155 162l-153 107c-61 43 -132 92 -182 92c-28 0 -56 -22 -56 -53c0 -53 83 -112 155 -162l154 -108c61 -43 131 -92 181 -92zM-217 207c-28 0 -56 -22 -56 -53c0 -53 83 -112 155 -162l162 -113
c59 -41 125 -86 173 -86c28 0 56 22 56 53c0 53 -83 112 -155 162l-162 113c-59 41 -125 86 -173 86z" />
    <glyph glyph-name="scripts.coda" unicode="&#xe155;" horiz-adv-x="254" 
d="M19 -337c0 -11 -8 -20 -19 -20s-19 9 -19 20v88c-93 13 -142 119 -147 230h-88c-11 0 -19 8 -19 19s8 19 19 19h88c5 111 54 217 147 230v89c0 11 8 19 19 19s19 -8 19 -19v-89c93 -13 142 -119 147 -230h88c11 0 19 -8 19 -19s-8 -19 -19 -19h-88
c-5 -111 -54 -217 -147 -230v-88zM19 -19v-191c63 15 72 105 73 191h-73zM19 19h73c-1 86 -10 176 -73 191v-191zM-19 -19h-73c1 -86 10 -176 73 -191v191zM-19 19v191c-63 -15 -72 -105 -73 -191h73z" />
    <glyph glyph-name="scripts.varcoda" unicode="&#xe156;" horiz-adv-x="260" 
d="M19 -344c0 -11 -8 -19 -19 -19s-19 8 -19 19v94h-134c-8 0 -14 6 -14 14v217h-94c-11 0 -19 8 -19 19s8 19 19 19h94v217c0 8 6 14 14 14h134v94c0 11 8 19 19 19s19 -8 19 -19v-94h134c8 0 14 -6 14 -14v-217h94c11 0 19 -8 19 -19s-8 -19 -19 -19h-94v-217
c0 -8 -6 -14 -14 -14h-134v-94zM19 -19v-193h53v193h-53zM19 19h53v193h-53v-193zM-19 -19h-53v-193h53v193zM-19 19v193h-53v-193h53z" />
    <glyph glyph-name="scripts.rcomma" unicode="&#xe157;" horiz-adv-x="124" 
d="M16 -153c-11 0 -19 9 -19 19c0 4 1 8 3 11c30 42 52 91 52 137c0 24 -6 49 -21 70c-6 8 -8 18 -8 27c0 24 20 48 47 48c42 0 62 -56 62 -92c0 -70 -53 -144 -101 -212c-4 -5 -9 -8 -15 -8z" />
    <glyph glyph-name="scripts.lcomma" unicode="&#xe158;" horiz-adv-x="0" 
d="M-16 153c11 0 19 -9 19 -19c0 -4 -1 -8 -3 -11c-30 -42 -52 -91 -52 -137c0 -24 6 -49 21 -70c6 -8 8 -18 8 -27c0 -24 -20 -48 -47 -48c-42 0 -62 56 -62 92c0 70 53 144 101 212c4 5 9 8 15 8z" />
    <glyph glyph-name="scripts.rvarcomma" unicode="&#xe159;" horiz-adv-x="62" 
d="M-63 -169c-11 0 -18 9 -18 19c0 2 0 5 1 7l98 311c6 19 24 30 43 30c29 0 50 -24 50 -47c0 -6 -1 -13 -4 -19l-152 -289c-4 -7 -11 -12 -18 -12z" />
    <glyph glyph-name="scripts.lvarcomma" unicode="&#xe15a;" horiz-adv-x="62" 
d="M63 169c11 0 18 -9 18 -19c0 -2 0 -5 -1 -7l-98 -311c-6 -19 -24 -30 -43 -30c-29 0 -50 24 -50 47c0 6 1 13 4 19l152 289c4 7 11 12 18 12z" />
    <glyph glyph-name="scripts.arpeggio" unicode="&#xe15b;" horiz-adv-x="200" 
d="M41 277c-4 4 -6 8 -6 12c0 9 9 18 18 18c3 0 7 -1 10 -4l129 -111c8 -6 11 -12 11 -19c0 -24 -41 -49 -69 -76c-14 -14 -21 -32 -21 -50c0 -16 5 -33 17 -46l29 -28c5 -4 6 -9 6 -13c0 -9 -8 -18 -17 -18c-4 0 -7 2 -11 5l-129 111c-8 6 -11 12 -11 19c0 24 41 49 69 76
c14 14 21 32 21 50c0 16 -5 33 -17 46z" />
    <glyph glyph-name="scripts.trill_element" unicode="&#xe15c;" horiz-adv-x="249" 
d="M-27 41c-4 -4 -8 -6 -12 -6c-9 0 -18 9 -18 18c0 3 1 7 4 10l111 129c6 8 12 11 19 11c24 0 49 -41 76 -69c14 -14 32 -21 50 -21c16 0 33 5 46 17l28 29c4 5 9 6 13 6c9 0 18 -8 18 -17c0 -4 -2 -7 -5 -11l-111 -129c-6 -8 -12 -11 -19 -11c-24 0 -49 41 -76 69
c-14 14 -32 21 -50 21c-16 0 -33 -5 -46 -17z" />
    <glyph glyph-name="scripts.arpeggio.arrow.M1" unicode="&#xe15d;" horiz-adv-x="200" 
d="M41 277c-5 4 -7 9 -7 14c0 10 9 18 18 18c4 0 8 -2 11 -6l85 -93c11 -12 17 -26 21 -41l76 37c6 3 15 5 15 -6c0 -2 -1 -4 -2 -6c-53 -63 -123 -113 -151 -191c-1 -3 -5 -3 -8 -3c-2 0 -4 0 -5 2c-28 78 -98 128 -151 191c-2 2 -3 5 -3 8c0 8 8 9 14 6l90 -44
c16 20 39 41 39 61c0 8 -4 16 -13 25z" />
    <glyph glyph-name="scripts.arpeggio.arrow.1" unicode="&#xe15e;" horiz-adv-x="200" 
d="M159 -27c5 -4 7 -9 7 -14c0 -10 -9 -18 -18 -18c-4 0 -8 2 -11 6l-85 93c-11 12 -17 26 -21 41l-76 -37c-6 -3 -15 -5 -15 6c0 2 1 4 2 6c53 63 123 113 151 191c1 3 5 3 8 3c2 0 4 0 5 -2c28 -78 98 -128 151 -191c2 -2 3 -5 3 -8c0 -8 -8 -9 -14 -6l-90 44
c-16 -20 -39 -41 -39 -61c0 -8 4 -16 13 -25z" />
    <glyph glyph-name="scripts.trilelement" unicode="&#xe15f;" horiz-adv-x="104" 
d="M-78 -1l-8 -11l-37 24l69 103c4 6 11 10 18 10s13 -3 17 -8l97 -116l8 11l37 -24l-69 -103c-4 -6 -11 -10 -18 -10s-13 3 -17 8z" />
    <glyph glyph-name="scripts.prall" unicode="&#xe160;" horiz-adv-x="208" 
d="M213 47c4 6 11 10 18 10c12 0 22 -10 22 -22c0 -4 -1 -9 -3 -13c-31 -46 -61 -91 -92 -137c-4 -6 -11 -10 -18 -10s-13 3 -17 8l-97 116c-25 -38 -51 -76 -76 -114c-4 -6 -12 -10 -19 -10s-13 3 -17 8l-97 116c-10 -15 -20 -31 -30 -46c-4 -6 -11 -10 -18 -10
c-12 0 -22 10 -22 22c0 4 1 9 3 13c31 46 61 91 92 137c4 6 11 10 18 10s13 -3 17 -8l97 -116c25 38 51 76 76 114c4 6 12 10 19 10s13 -3 17 -8l97 -116c10 15 20 31 30 46z" />
    <glyph glyph-name="scripts.mordent" unicode="&#xe161;" horiz-adv-x="208" 
d="M0 -167c-12 0 -22 10 -22 22v72l-28 -42c-4 -6 -12 -10 -19 -10s-13 3 -17 8l-97 116c-10 -15 -20 -31 -30 -46c-4 -6 -11 -10 -18 -10c-12 0 -22 10 -22 22c0 4 1 9 3 13c31 46 61 91 92 137c4 6 11 10 18 10s13 -3 17 -8l97 -116l4 6v138c0 12 10 22 22 22
s22 -10 22 -22v-72l28 42c4 6 12 10 19 10s13 -3 17 -8l97 -116c10 15 20 31 30 46c4 6 11 10 18 10c12 0 22 -10 22 -22c0 -4 -1 -9 -3 -13c-31 -46 -61 -91 -92 -137c-4 -6 -11 -10 -18 -10s-13 3 -17 8l-97 116l-4 -6v-138c0 -12 -10 -22 -22 -22z" />
    <glyph glyph-name="scripts.prallprall" unicode="&#xe162;" horiz-adv-x="312" 
d="M317 47c4 6 12 10 19 10c12 0 22 -10 22 -22c0 -4 -2 -9 -4 -13c-31 -46 -61 -91 -92 -137c-4 -6 -11 -10 -18 -10s-13 3 -17 8l-97 116c-25 -38 -51 -76 -76 -114c-4 -6 -11 -10 -18 -10s-13 3 -17 8l-97 116c-25 -38 -51 -76 -76 -114c-4 -6 -12 -10 -19 -10
s-13 3 -17 8l-97 116c-10 -15 -20 -31 -30 -46c-4 -6 -12 -10 -19 -10c-12 0 -22 10 -22 22c0 4 2 9 4 13c31 46 61 91 92 137c4 6 11 10 18 10s13 -3 17 -8l97 -116c25 38 51 76 76 114c4 6 11 10 18 10s13 -3 17 -8l97 -116c25 38 51 76 76 114c4 6 12 10 19 10
s13 -3 17 -8l97 -116c10 15 20 31 30 46z" />
    <glyph glyph-name="scripts.prallmordent" unicode="&#xe163;" horiz-adv-x="312" 
d="M104 -167c-12 0 -22 10 -22 22v72l-28 -42c-4 -6 -11 -10 -18 -10s-13 3 -17 8l-97 116c-25 -38 -51 -76 -76 -114c-4 -6 -12 -10 -19 -10s-13 3 -17 8l-97 116c-10 -15 -20 -31 -30 -46c-4 -6 -12 -10 -19 -10c-12 0 -22 10 -22 22c0 4 2 9 4 13c31 46 61 91 92 137
c4 6 11 10 18 10s13 -3 17 -8l97 -116c25 38 51 76 76 114c4 6 11 10 18 10s13 -3 17 -8l97 -116l4 6v138c0 12 10 22 22 22s22 -10 22 -22v-72l28 42c4 6 12 10 19 10s13 -3 17 -8l97 -116c10 15 20 31 30 46c4 6 12 10 19 10c12 0 22 -10 22 -22c0 -4 -2 -9 -4 -13
c-31 -46 -61 -91 -92 -137c-4 -6 -11 -10 -18 -10s-13 3 -17 8l-97 116l-4 -6v-138c0 -12 -10 -22 -22 -22z" />
    <glyph glyph-name="scripts.upprall" unicode="&#xe164;" horiz-adv-x="312" 
d="M317 47c4 6 12 10 19 10c12 0 22 -10 22 -22c0 -4 -2 -9 -4 -13c-31 -46 -61 -91 -92 -137c-4 -6 -11 -10 -18 -10s-13 3 -17 8l-97 116c-25 -38 -51 -76 -76 -114c-4 -6 -11 -10 -18 -10s-13 3 -17 8l-97 116c-25 -38 -51 -76 -76 -114c-4 -6 -12 -10 -19 -10
s-13 3 -17 8l-97 116c-10 -15 -20 -31 -30 -46c-23 -34 -34 -74 -34 -113s11 -78 34 -112c10 -15 -2 -35 -19 -35c-7 0 -14 4 -18 10c-28 42 -42 89 -42 137s14 96 42 138c31 46 61 91 92 137c4 6 11 10 18 10s13 -3 17 -8l97 -116c25 38 51 76 76 114c4 6 11 10 18 10
s13 -3 17 -8l97 -116c25 38 51 76 76 114c4 6 12 10 19 10s13 -3 17 -8l97 -116c10 15 20 31 30 46z" />
    <glyph glyph-name="scripts.upmordent" unicode="&#xe165;" horiz-adv-x="312" 
d="M104 -167c-12 0 -22 10 -22 22v72l-28 -42c-4 -6 -11 -10 -18 -10s-13 3 -17 8l-97 116c-25 -38 -51 -76 -76 -114c-4 -6 -12 -10 -19 -10s-13 3 -17 8l-97 116c-10 -15 -20 -31 -30 -46c-23 -34 -34 -74 -34 -113s11 -78 34 -112c10 -15 -2 -35 -19 -35
c-7 0 -14 4 -18 10c-28 42 -42 89 -42 137s14 96 42 138c31 46 61 91 92 137c4 6 11 10 18 10s13 -3 17 -8l97 -116c25 38 51 76 76 114c4 6 11 10 18 10s13 -3 17 -8l97 -116l4 6v138c0 12 10 22 22 22s22 -10 22 -22v-72l28 42c4 6 12 10 19 10s13 -3 17 -8l97 -116
c10 15 20 31 30 46c4 6 12 10 19 10c12 0 22 -10 22 -22c0 -4 -2 -9 -4 -13c-31 -46 -61 -91 -92 -137c-4 -6 -11 -10 -18 -10s-13 3 -17 8l-97 116l-4 -6v-138c0 -12 -10 -22 -22 -22z" />
    <glyph glyph-name="scripts.pralldown" unicode="&#xe166;" horiz-adv-x="312" 
d="M-317 47c10 -15 20 -31 30 -46l97 116c4 5 10 8 17 8s15 -4 19 -10c25 -38 51 -76 76 -114l97 116c4 5 10 8 17 8s14 -4 18 -10c25 -38 51 -76 76 -114l97 116c4 5 10 8 17 8s14 -4 18 -10c31 -46 61 -91 92 -137c28 -42 42 -90 42 -138s-14 -95 -42 -137
c-4 -6 -11 -10 -18 -10c-17 0 -29 20 -19 35c23 34 34 73 34 112s-11 79 -34 113c-10 15 -20 31 -30 46l-97 -116c-4 -5 -10 -8 -17 -8s-15 4 -19 10c-25 38 -51 76 -76 114l-97 -116c-4 -5 -10 -8 -17 -8s-14 4 -18 10c-25 38 -51 76 -76 114l-97 -116c-4 -5 -10 -8 -17 -8
s-14 4 -18 10c-31 46 -61 91 -92 137c-2 4 -4 9 -4 13c0 12 10 22 22 22c7 0 15 -4 19 -10z" />
    <glyph glyph-name="scripts.downprall" unicode="&#xe167;" horiz-adv-x="312" 
d="M317 47c4 6 12 10 19 10c12 0 22 -10 22 -22c0 -4 -2 -9 -4 -13c-31 -46 -61 -91 -92 -137c-4 -6 -11 -10 -18 -10s-13 3 -17 8l-97 116c-25 -38 -51 -76 -76 -114c-4 -6 -11 -10 -18 -10s-13 3 -17 8l-97 116c-25 -38 -51 -76 -76 -114c-4 -6 -12 -10 -19 -10
s-13 3 -17 8l-97 116c-10 -15 -20 -31 -30 -46c-4 -6 -12 -10 -19 -10c-8 0 -14 4 -18 10c-28 41 -42 89 -42 137s14 96 42 138c4 6 11 9 18 9c17 0 29 -19 19 -34c-23 -34 -34 -74 -34 -113c0 -28 5 -56 17 -82c24 36 48 71 72 107c4 6 11 10 18 10s13 -3 17 -8l97 -116
c25 38 51 76 76 114c4 6 11 10 18 10s13 -3 17 -8l97 -116c25 38 51 76 76 114c4 6 12 10 19 10s13 -3 17 -8l97 -116c10 15 20 31 30 46z" />
    <glyph glyph-name="scripts.downmordent" unicode="&#xe168;" horiz-adv-x="312" 
d="M104 -167c-12 0 -22 10 -22 22v72l-28 -42c-4 -6 -11 -10 -18 -10s-13 3 -17 8l-97 116c-25 -38 -51 -76 -76 -114c-4 -6 -12 -10 -19 -10s-13 3 -17 8l-97 116c-10 -15 -20 -31 -30 -46c-4 -6 -12 -10 -19 -10c-8 0 -14 4 -18 10c-28 41 -42 89 -42 137s14 96 42 138
c4 6 11 9 18 9c17 0 29 -19 19 -34c-23 -34 -34 -74 -34 -113c0 -28 5 -56 17 -82c24 36 48 71 72 107c4 6 11 10 18 10s13 -3 17 -8l97 -116c25 38 51 76 76 114c4 6 11 10 18 10s13 -3 17 -8l97 -116l4 6v138c0 12 10 22 22 22s22 -10 22 -22v-72l28 42c4 6 12 10 19 10
s13 -3 17 -8l97 -116c10 15 20 31 30 46c4 6 12 10 19 10c12 0 22 -10 22 -22c0 -4 -2 -9 -4 -13c-31 -46 -61 -91 -92 -137c-4 -6 -11 -10 -18 -10s-13 3 -17 8l-97 116l-4 -6v-138c0 -12 -10 -22 -22 -22z" />
    <glyph glyph-name="scripts.prallup" unicode="&#xe169;" horiz-adv-x="312" 
d="M-317 47c10 -15 20 -31 30 -46l97 116c4 5 10 8 17 8s15 -4 19 -10c25 -38 51 -76 76 -114l97 116c4 5 10 8 17 8s14 -4 18 -10c25 -38 51 -76 76 -114l97 116c4 5 10 8 17 8s14 -4 18 -10c24 -36 48 -71 72 -107c12 26 17 54 17 82c0 39 -11 79 -34 113
c-10 15 2 34 19 34c7 0 14 -3 18 -9c28 -42 42 -90 42 -138s-14 -96 -42 -137c-4 -6 -10 -10 -18 -10c-7 0 -15 4 -19 10c-10 15 -20 31 -30 46l-97 -116c-4 -5 -10 -8 -17 -8s-15 4 -19 10c-25 38 -51 76 -76 114l-97 -116c-4 -5 -10 -8 -17 -8s-14 4 -18 10
c-25 38 -51 76 -76 114l-97 -116c-4 -5 -10 -8 -17 -8s-14 4 -18 10c-31 46 -61 91 -92 137c-2 4 -4 9 -4 13c0 12 10 22 22 22c7 0 15 -4 19 -10z" />
    <glyph glyph-name="scripts.lineprall" unicode="&#xe16a;" horiz-adv-x="312" 
d="M317 47c4 6 12 10 19 10c12 0 22 -10 22 -22c0 -4 -2 -9 -4 -13c-31 -46 -61 -91 -92 -137c-4 -6 -11 -10 -18 -10s-13 3 -17 8l-97 116c-25 -38 -51 -76 -76 -114c-4 -6 -11 -10 -18 -10s-13 3 -17 8l-97 116c-25 -38 -51 -76 -76 -114c-4 -6 -12 -10 -19 -10
s-13 3 -17 8l-97 116c-10 -15 -20 -31 -30 -46c-4 -6 -12 -10 -19 -10c-12 0 -22 10 -22 22v500c0 12 10 22 22 22s22 -10 22 -22v-427l52 77c4 6 11 10 18 10s13 -3 17 -8l97 -116c25 38 51 76 76 114c4 6 11 10 18 10s13 -3 17 -8l97 -116c25 38 51 76 76 114
c4 6 12 10 19 10s13 -3 17 -8l97 -116c10 15 20 31 30 46z" />
    <glyph glyph-name="scripts.caesura.curved" unicode="&#xe16b;" horiz-adv-x="499" 
d="M174 -200c-14 0 -24 12 -24 24c0 3 1 6 2 9c60 140 80 293 88 445c1 21 18 38 39 38c23 0 40 -19 40 -40c0 -158 -62 -319 -123 -462c-4 -9 -13 -14 -22 -14zM24 -200c-14 0 -24 12 -24 24c0 3 1 6 2 9c60 140 80 293 88 445c1 21 18 38 39 38c23 0 40 -19 40 -40
c0 -158 -62 -319 -123 -462c-4 -9 -13 -14 -22 -14z" />
    <glyph glyph-name="scripts.caesura.straight" unicode="&#xe16c;" horiz-adv-x="499" 
d="M153 -175l224 450c8 16 24 25 41 25h35c10 0 18 -8 18 -17c0 -3 -1 -5 -2 -8l-225 -450c-8 -16 -24 -25 -41 -25h-35c-10 0 -17 8 -17 17c0 3 1 5 2 8zM13 -175l224 450c8 16 24 25 41 25h35c10 0 18 -8 18 -17c0 -3 -1 -5 -2 -8l-225 -450c-8 -16 -24 -25 -41 -25h-35
c-10 0 -17 8 -17 17c0 3 1 5 2 8z" />
    <glyph glyph-name="scripts.tickmark" unicode="&#xe16d;" horiz-adv-x="274" 
d="M-136 205c46 -31 90 -65 128 -105c6 -6 14 -6 16 0c44 139 122 270 256 324c1 0 2 1 3 1c4 0 8 -3 8 -8c0 -3 -2 -6 -5 -7c-146 -58 -190 -227 -238 -378c-5 -16 -15 -32 -31 -32c-17 0 -26 17 -33 32c-27 61 -70 114 -116 163c-2 2 -2 3 -2 5c0 8 8 9 14 5z" />
    <glyph glyph-name="scripts.snappizzicato" unicode="&#xe16e;" horiz-adv-x="133" 
d="M0 -21c-11 0 -21 10 -21 21v90c-41 -9 -71 -46 -71 -90c0 -51 41 -92 92 -92s92 41 92 92c0 44 -30 81 -71 90v-90c0 -11 -10 -21 -21 -21zM-21 132v68c0 11 10 21 21 21s21 -10 21 -21v-68c64 -10 112 -65 112 -132c0 -74 -59 -133 -133 -133s-133 59 -133 133
c0 67 48 122 112 132z" />
    <glyph glyph-name="clefs.C" unicode="&#xe16f;" horiz-adv-x="686" 
d="M332 0c0 -31 5 -71 42 -71c29 0 55 34 86 34c123 0 227 -93 227 -213c0 -167 -88 -250 -256 -250c-82 0 -151 61 -151 141c0 42 33 75 75 75s76 -33 76 -75c0 -38 -45 -38 -45 -76c0 -21 22 -34 45 -34c114 0 135 89 135 219c0 107 -13 182 -106 182
c-69 0 -113 -70 -113 -144c0 -10 -7 -15 -15 -15s-16 5 -16 15c0 73 -30 143 -83 193v-467c0 -8 -6 -14 -14 -14h-18c-8 0 -14 6 -14 14v972c0 8 6 14 14 14h18c8 0 14 -6 14 -14v-467c53 50 83 120 83 193c0 10 8 15 16 15s15 -5 15 -15c0 -74 44 -144 113 -144
c93 0 106 75 106 182c0 130 -21 219 -135 219c-23 0 -45 -13 -45 -34c0 -38 45 -38 45 -76c0 -42 -34 -75 -76 -75s-75 33 -75 75c0 80 69 141 151 141c168 0 256 -83 256 -250c0 -120 -104 -213 -227 -213c-31 0 -57 34 -86 34c-37 0 -42 -40 -42 -71zM126 -500h-112
c-8 0 -14 6 -14 14v972c0 8 6 14 14 14h112c8 0 14 -6 14 -14v-972c0 -8 -6 -14 -14 -14z" />
    <glyph glyph-name="clefs.C_change" unicode="&#xe170;" horiz-adv-x="555" 
d="M278 0c0 -24 2 -55 31 -55c24 0 43 30 68 30c98 0 179 -78 179 -175c0 -132 -66 -200 -197 -200c-64 0 -119 48 -119 111c0 33 26 60 59 60s60 -27 60 -60c0 -29 -32 -31 -32 -60c0 -15 16 -23 32 -23c89 0 105 70 105 172c0 87 -11 147 -87 147c-52 0 -85 -53 -85 -110
c0 -9 -7 -14 -14 -14s-14 5 -14 14c0 57 -24 110 -66 147v-370c0 -8 -6 -14 -14 -14h-14c-8 0 -14 6 -14 14v772c0 8 6 14 14 14h14c8 0 14 -6 14 -14v-370c42 37 66 90 66 147c0 9 7 14 14 14s14 -5 14 -14c0 -57 33 -110 85 -110c76 0 87 60 87 147
c0 102 -16 172 -105 172c-16 0 -32 -8 -32 -23c0 -29 32 -31 32 -60c0 -33 -27 -60 -60 -60s-59 27 -59 60c0 63 55 111 119 111c131 0 197 -68 197 -200c0 -97 -81 -175 -179 -175c-25 0 -44 30 -68 30c-29 0 -31 -31 -31 -55zM100 -400h-86c-8 0 -14 6 -14 14v772
c0 8 6 14 14 14h86c8 0 14 -6 14 -14v-772c0 -8 -6 -14 -14 -14z" />
    <glyph glyph-name="clefs.F" unicode="&#xe171;" horiz-adv-x="670" 
d="M559 -125c0 27 22 50 49 50s50 -23 50 -50s-23 -50 -50 -50s-49 23 -49 50zM559 125c0 27 22 50 49 50s50 -23 50 -50s-23 -50 -50 -50s-49 23 -49 50zM230 266c173 0 295 -89 295 -254c0 -263 -262 -414 -514 -523c-3 -3 -7 -5 -11 -5c-9 0 -16 7 -16 16c0 4 2 8 5 11
c199 117 405 264 405 490c0 118 -58 233 -164 233c-67 0 -113 -50 -135 -117c6 1 11 2 17 2c55 0 100 -45 100 -100c0 -58 -44 -107 -100 -107c-60 0 -112 48 -112 107c0 133 100 247 230 247z" />
    <glyph glyph-name="clefs.F_change" unicode="&#xe172;" horiz-adv-x="536" 
d="M447 -100c0 22 18 40 40 40s39 -18 39 -40s-17 -40 -39 -40s-40 18 -40 40zM447 100c0 22 18 40 40 40s39 -18 39 -40s-17 -40 -39 -40s-40 18 -40 40zM177 216c142 0 243 -70 243 -204c0 -211 -209 -334 -409 -423c-3 -3 -7 -5 -11 -5c-9 0 -16 7 -16 16c0 4 2 8 5 11
c148 98 300 216 300 390c0 90 -33 183 -112 183c-47 0 -75 -37 -88 -85h1c44 0 80 -36 80 -80c0 -46 -35 -85 -80 -85c-48 0 -90 38 -90 85c0 105 75 197 177 197z" />
    <glyph glyph-name="clefs.G" unicode="&#xe173;" horiz-adv-x="641" 
d="M381 266h9c157 0 258 -130 258 -264c0 -77 -33 -156 -108 -212c-22 -16 -46 -28 -71 -36c2 -32 3 -65 3 -97c0 -21 -1 -43 -2 -64c-7 -122 -91 -230 -211 -230c-108 0 -197 88 -197 197c0 58 54 104 113 104c54 0 95 -48 95 -104c0 -52 -43 -95 -95 -95c-8 0 -16 2 -24 4
c25 -35 65 -59 111 -59c95 0 155 92 161 190c1 20 2 39 2 59c0 28 -1 55 -3 83c-29 -5 -57 -7 -87 -7c-189 0 -333 174 -333 377c0 176 128 307 242 443c-21 62 -41 124 -50 189c-7 52 -8 106 -8 159c0 113 54 219 146 286c4 3 9 5 14 5s11 -1 15 -5
c72 -82 136 -244 136 -357c0 -141 -83 -253 -174 -362c22 -67 41 -135 58 -204zM464 -200c64 25 108 93 108 159c0 87 -62 173 -163 187c24 -113 43 -225 55 -346zM338 -218c27 0 54 2 80 6c-13 125 -33 242 -58 359c-79 -7 -123 -59 -123 -116c0 -43 24 -89 78 -120
c5 -5 8 -11 8 -17c0 -13 -11 -24 -24 -24c-3 0 -7 0 -10 2c-81 44 -119 116 -119 187c0 90 60 178 164 201c-14 56 -30 112 -47 167c-104 -122 -208 -245 -208 -404c0 -132 127 -241 259 -241zM401 1035c-99 -45 -162 -145 -162 -253c0 -69 22 -127 41 -183
c77 97 140 199 140 323c0 49 -3 69 -19 113z" />
    <glyph glyph-name="clefs.G_change" unicode="&#xe174;" horiz-adv-x="513" 
d="M522 1c0 -82 -57 -170 -142 -200c2 -25 3 -49 3 -74c0 -18 -1 -36 -2 -54c-6 -100 -78 -188 -177 -188c-88 0 -159 73 -159 162c0 46 42 83 90 83c43 0 76 -38 76 -83c0 -42 -34 -76 -76 -76h-4c18 -23 45 -38 76 -38c74 0 122 71 127 147c1 16 1 33 1 49
c0 20 -1 41 -2 61c-22 -3 -42 -5 -65 -5c-152 0 -266 141 -266 305c0 143 97 255 185 369c-18 52 -34 104 -41 159c-5 43 -5 87 -5 131c0 90 41 176 111 233c4 3 8 5 13 5s11 -2 15 -6c59 -68 110 -200 110 -293c0 -113 -60 -206 -129 -296c18 -58 34 -117 49 -176h2
c128 0 210 -106 210 -215zM376 -151c46 21 76 72 76 120c0 65 -46 129 -119 143c18 -86 33 -171 43 -263zM68 13c0 -101 100 -181 203 -181c20 0 40 1 59 4c-10 97 -26 187 -45 278c-58 -7 -91 -46 -91 -89c0 -33 19 -68 61 -92c5 -5 8 -11 8 -17c0 -13 -11 -25 -24 -25
c-3 0 -8 1 -11 3c-66 36 -96 95 -96 153c0 73 48 143 131 163c-11 46 -24 91 -38 136c-79 -102 -157 -205 -157 -333zM312 850c-75 -41 -121 -120 -121 -205c0 -51 18 -97 32 -139c56 79 101 162 101 259c0 37 -2 52 -12 85z" />
    <glyph glyph-name="clefs.percussion" unicode="&#xe175;" horiz-adv-x="499" 
d="M486 -250h-84c-8 0 -15 6 -15 14v472c0 8 7 14 15 14h84c8 0 14 -6 14 -14v-472c0 -8 -6 -14 -14 -14zM266 -250h-84c-8 0 -15 6 -15 14v472c0 8 7 14 15 14h84c8 0 14 -6 14 -14v-472c0 -8 -6 -14 -14 -14z" />
    <glyph glyph-name="clefs.percussion_change" unicode="&#xe176;" horiz-adv-x="400" 
d="M386 -200h-62c-8 0 -14 6 -14 14v372c0 8 6 14 14 14h62c8 0 14 -6 14 -14v-372c0 -8 -6 -14 -14 -14zM210 -200h-62c-8 0 -14 6 -14 14v372c0 8 6 14 14 14h62c8 0 14 -6 14 -14v-372c0 -8 -6 -14 -14 -14z" />
    <glyph glyph-name="clefs.tab" unicode="&#xe177;" horiz-adv-x="699" 
d="M267 -425c0 -24 -23 -27 -43 -27c-45 0 -84 31 -84 75c0 82 118 130 234 130c104 0 215 -22 215 -103c0 -51 -31 -86 -69 -110c58 -11 102 -36 102 -91c0 -90 -94 -158 -179 -158c-41 0 -80 15 -108 52c-2 2 -3 5 -3 8c0 12 16 25 28 25c4 0 8 -1 10 -4
c11 -15 27 -21 44 -21c43 0 95 40 95 93c0 47 -49 64 -101 64c-6 0 -8 7 -8 15c0 11 5 25 18 25c36 0 69 38 69 76c0 45 -36 68 -80 76c-11 -62 -31 -173 -40 -220c-20 -102 -84 -202 -159 -202c-44 0 -68 34 -96 53c-3 2 -4 5 -4 9c0 11 12 26 24 26c3 0 5 0 7 -2
c20 -13 36 -35 65 -35c65 0 89 99 89 195v8c0 35 9 109 18 163c-39 -13 -70 -40 -70 -70c0 -15 8 -28 19 -34c4 -3 7 -9 7 -16zM301 -83c-43 -41 -114 -105 -173 -105c-33 0 -52 21 -78 32c-3 1 -5 5 -5 9c0 11 11 28 25 28c2 0 5 -1 7 -2c16 -7 30 -18 50 -18
c34 0 65 27 91 54c100 102 175 219 214 336c9 27 33 37 57 37c29 0 57 -15 57 -31c0 -2 -1 -4 -2 -6c-4 -116 -9 -233 -16 -350v-9c0 -16 3 -30 21 -30c16 0 35 13 53 19l2 1c5 0 9 -8 9 -17c0 -8 -3 -16 -12 -19c-29 -9 -54 -34 -87 -34c-32 0 -45 29 -53 58
c-16 61 -26 125 -31 191c-27 -35 -56 -68 -87 -101c11 -20 33 -33 64 -33c4 0 8 1 12 1c5 0 8 -7 8 -15c0 -25 -35 -29 -57 -29c-32 0 -55 12 -69 33zM288 540c0 -23 -23 -24 -42 -24c-49 0 -91 36 -91 84c0 95 125 120 232 120c49 0 119 -41 171 -41c38 0 77 15 110 41
c3 2 6 3 9 3c11 0 23 -11 23 -19c0 -2 -1 -3 -2 -4c-40 -45 -95 -71 -148 -71c-15 0 -31 2 -44 6c-9 -59 -26 -151 -35 -193c-22 -96 -88 -185 -163 -185c-52 0 -81 42 -115 64c-3 2 -4 5 -4 9c0 11 12 26 23 26c2 0 5 -1 7 -2c23 -15 43 -46 75 -46c56 0 82 77 85 150
c2 45 13 150 22 208c-12 3 -23 5 -32 5c-51 0 -113 -21 -113 -70c0 -18 10 -36 24 -43c5 -3 8 -10 8 -18z" />
    <glyph glyph-name="clefs.tab_change" unicode="&#xe178;" horiz-adv-x="560" 
d="M213 -340c0 -19 -17 -21 -33 -21c-36 0 -68 24 -68 59c0 66 94 104 187 104c83 0 173 -18 173 -82c0 -41 -26 -69 -56 -88c46 -9 82 -29 82 -73c0 -72 -76 -126 -144 -126c-33 0 -64 12 -86 42c-1 2 -2 4 -2 6c0 10 12 20 22 20c3 0 6 -1 8 -4c9 -12 22 -16 36 -16
c34 0 76 32 76 74c0 37 -40 51 -81 51c-5 0 -7 5 -7 12c0 9 5 20 15 20c29 0 55 31 55 62c0 36 -29 54 -64 60c-9 -50 -25 -138 -32 -176c-16 -82 -67 -161 -127 -161c-35 0 -54 27 -77 42c-2 2 -4 4 -4 7c0 9 10 21 19 21c2 0 4 -1 6 -2c16 -11 29 -28 53 -28
c52 0 71 79 71 156v7c0 28 7 87 14 130c-32 -11 -56 -32 -56 -56c0 -12 6 -22 15 -27c4 -2 5 -7 5 -13zM56 -95c17 0 27 -16 46 -16c27 0 52 22 73 43c80 81 139 175 170 269c7 22 27 29 46 29c23 0 45 -11 45 -24c0 -95 -14 -194 -14 -292c0 -13 3 -25 17 -25
c13 0 29 16 44 16c4 0 7 -6 7 -13c0 -6 -2 -13 -9 -15c-23 -7 -44 -28 -70 -28s-36 24 -42 47c-13 49 -21 100 -25 153c-21 -28 -44 -55 -69 -81c11 -20 30 -26 60 -26c4 0 6 -6 6 -12c0 -20 -27 -23 -45 -23c-25 0 -44 10 -55 27c-34 -32 -91 -84 -139 -84
c-27 0 -41 16 -62 25c-3 1 -4 4 -4 7c0 9 9 23 20 23zM230 432c0 -18 -18 -19 -33 -19c-39 0 -73 29 -73 67c0 76 101 96 186 96c39 0 95 -33 136 -33c30 0 62 12 88 33c2 2 4 2 7 2c9 0 19 -9 19 -15c0 -1 0 -2 -1 -3c-32 -36 -77 -57 -119 -57c-12 0 -25 2 -35 5
c-7 -47 -20 -122 -28 -155c-17 -77 -70 -148 -130 -148c-41 0 -64 34 -92 52c-2 2 -4 4 -4 7c0 9 9 21 18 21c2 0 4 -1 6 -2c18 -12 34 -37 60 -37c45 0 66 62 68 121c1 36 11 120 18 166c-10 2 -19 4 -26 4c-41 0 -90 -16 -90 -56c0 -14 8 -28 19 -34c4 -2 6 -9 6 -15z" />
    <glyph glyph-name="timesig.C44" unicode="&#xe179;" horiz-adv-x="418" 
d="M355 31c-47 0 -71 41 -71 72c0 37 26 73 69 73c2 0 3 -1 5 -1c-25 35 -63 59 -108 59c-107 0 -113 -75 -113 -191c0 -14 1 -28 1 -43s-1 -29 -1 -43c0 -116 6 -191 113 -191c76 0 129 71 147 149c2 9 8 12 15 12c8 0 16 -5 16 -15c0 -95 -101 -178 -178 -178
c-69 0 -137 21 -184 71c-49 52 -66 124 -66 195s17 143 66 195c47 50 115 71 184 71c85 0 153 -68 168 -154c1 -4 1 -8 1 -12c0 -38 -29 -69 -64 -69z" />
    <glyph glyph-name="timesig.C22" unicode="&#xe17a;" horiz-adv-x="418" 
d="M355 31c-47 0 -71 41 -71 72c0 37 26 73 69 73c2 0 3 -1 5 -1c-25 35 -63 59 -108 59c-6 0 -12 0 -18 -1v-466c6 -1 12 -1 18 -1c76 0 129 71 147 149c2 9 8 12 15 12c8 0 16 -5 16 -15c0 -95 -101 -178 -178 -178c-6 0 -12 1 -18 1v-71c0 -8 -6 -14 -14 -14h-16
c-8 0 -14 6 -14 14v76c-46 9 -89 30 -122 65c-49 52 -66 124 -66 195s17 143 66 195c33 35 76 56 122 65v76c0 8 6 14 14 14h16c8 0 14 -6 14 -14v-71c6 0 12 1 18 1c85 0 153 -68 168 -154c1 -4 1 -8 1 -12c0 -38 -29 -69 -64 -69zM188 -221v442c-47 -26 -51 -91 -51 -178
c0 -14 1 -28 1 -43s-1 -29 -1 -43c0 -87 4 -152 51 -178z" />
    <glyph glyph-name="pedal.*" unicode="&#xe17b;" horiz-adv-x="388" 
d="M165 194c0 -16 13 -29 29 -29s30 13 30 29s-14 30 -30 30s-29 -14 -29 -30zM207 278c0 -21 22 -31 37 -16c18 18 4 52 22 70c10 10 22 14 33 14c25 0 47 -22 47 -47c0 -11 -4 -23 -14 -33c-18 -18 -52 -4 -70 -22c-15 -15 -5 -37 16 -37c26 0 38 34 64 34
c31 0 47 -24 47 -47s-16 -46 -47 -46c-26 0 -38 34 -64 34c-21 0 -31 -22 -16 -37c18 -18 52 -4 70 -22c10 -10 14 -22 14 -33c0 -25 -22 -48 -47 -48c-11 0 -23 5 -33 15c-18 18 -4 52 -22 70c-15 15 -37 5 -37 -16c0 -26 34 -38 34 -64c0 -31 -24 -47 -47 -47
s-46 16 -46 47c0 26 34 38 34 64c0 21 -22 31 -37 16c-18 -18 -4 -52 -22 -70c-10 -10 -22 -15 -33 -15c-25 0 -48 23 -48 48c0 11 5 23 15 33c18 18 52 4 70 22c15 15 5 37 -16 37c-26 0 -38 -34 -64 -34c-31 0 -47 23 -47 46s16 47 47 47c26 0 38 -34 64 -34
c21 0 31 22 16 37c-18 18 -52 4 -70 22c-10 10 -15 22 -15 33c0 25 23 47 48 47c11 0 23 -4 33 -14c18 -18 4 -52 22 -70c15 -15 37 -5 37 16c0 26 -34 38 -34 64c0 31 23 47 46 47s47 -16 47 -47c0 -26 -34 -38 -34 -64z" />
    <glyph glyph-name="pedal.M" unicode="&#xe17c;" horiz-adv-x="238" 
d="M0 151l40 69c15 12 35 15 58 15c27 0 56 -4 83 -4c23 0 43 3 58 15l-40 -69c-15 -12 -35 -15 -58 -15c-27 0 -56 4 -83 4c-23 0 -43 -3 -58 -15z" />
    <glyph glyph-name="pedal.." unicode="&#xe17d;" horiz-adv-x="79" 
d="M0 40c0 22 18 40 40 40s40 -18 40 -40s-18 -40 -40 -40s-40 18 -40 40z" />
    <glyph glyph-name="pedal.P" unicode="&#xe17e;" horiz-adv-x="416" 
d="M43 332c0 -19 12 -49 38 -49c21 0 41 34 41 67c0 10 22 10 22 0c0 -71 -41 -141 -86 -141c-44 0 -66 47 -66 84c0 87 93 207 258 207c111 0 171 -84 171 -149c0 -31 -18 -70 -55 -70c-38 0 -72 57 -93 102c-4 9 16 18 20 9c9 -19 29 -37 47 -37c19 0 29 17 29 33
c0 37 -44 90 -119 90h-10c-10 -25 -32 -84 -32 -100c0 -47 101 -117 101 -168c0 -24 -27 -52 -56 -90c29 -2 83 -18 101 -33c14 -12 39 15 48 22c6 4 16 -6 16 -13c0 -2 0 -4 -1 -5c-13 -14 -93 -76 -109 -85c-7 -4 -17 -5 -23 0c-17 14 -23 82 -49 91
c-23 -29 -46 -56 -54 -64c-13 -13 -51 -33 -69 -33c-9 0 -17 6 -17 15c0 13 18 39 27 49c18 19 72 52 101 56c15 18 26 25 26 44c0 47 -87 113 -87 152c0 22 36 125 53 160c-109 -14 -173 -90 -173 -144z" />
    <glyph glyph-name="pedal.d" unicode="&#xe17f;" horiz-adv-x="333" 
d="M4 437c141 -25 305 -128 329 -265c1 -8 2 -17 2 -26c0 -72 -49 -146 -113 -146c-62 0 -111 76 -111 143c0 53 43 108 92 134c-49 70 -125 125 -203 139c-4 1 -6 5 -6 9c0 6 4 13 9 13zM216 257c-32 -22 -45 -73 -45 -114c0 -43 14 -98 51 -98c28 0 37 31 37 66
c0 61 -16 102 -43 146z" />
    <glyph glyph-name="pedal.e" unicode="&#xe180;" horiz-adv-x="199" 
d="M74 2c-41 0 -52 39 -63 80c-6 -1 -13 7 -13 13c0 5 5 8 8 10c-5 21 -7 32 -7 52c0 61 31 133 96 133c27 0 52 -18 52 -48c0 -37 -38 -79 -72 -108l-12 -10c12 -22 30 -52 42 -62c6 -5 17 -4 23 0c9 5 51 40 58 47c5 5 16 -4 16 -12c0 -2 -1 -5 -2 -6
c-11 -12 -77 -70 -90 -79c-10 -7 -23 -10 -36 -10zM75 251c-26 0 -38 -23 -38 -47c0 -20 6 -42 15 -60l9 7c22 19 46 46 46 70c0 18 -15 30 -32 30z" />
    <glyph glyph-name="pedal.Ped" unicode="&#xe181;" horiz-adv-x="797" 
d="M43 332c0 -19 12 -49 38 -49c21 0 41 34 41 67c0 10 22 10 22 0c0 -71 -41 -141 -86 -141c-44 0 -66 47 -66 84c0 87 93 207 258 207c111 0 171 -84 171 -149c0 -31 -18 -70 -55 -70c-38 0 -72 57 -93 102c-4 9 16 18 20 9c9 -19 29 -37 47 -37c19 0 29 17 29 33
c0 37 -44 90 -119 90h-10c-10 -25 -32 -84 -32 -100c0 -47 101 -117 101 -168c0 -24 -27 -52 -56 -90c29 -2 83 -18 101 -33c17 -15 38 21 51 23c-4 19 -6 29 -6 47c0 61 31 133 96 133c27 0 51 -18 51 -48c0 -37 -37 -79 -71 -108l-12 -10c12 -22 30 -52 42 -62
c6 -5 16 -4 22 0c7 4 41 30 54 42c-3 13 -5 26 -5 39c0 53 42 108 91 134c-49 70 -124 125 -202 139c-10 2 -6 23 4 21c141 -25 304 -128 328 -265c1 -8 3 -17 3 -26c0 -72 -49 -146 -113 -146c-43 0 -79 36 -98 81c-23 -21 -69 -61 -80 -69c-10 -7 -22 -10 -35 -10
c-41 0 -52 39 -63 80c-1 0 -3 -1 -4 0c-26 -22 -85 -68 -99 -76c-7 -4 -17 -5 -23 0c-17 14 -23 82 -49 91c-23 -29 -46 -56 -54 -64c-13 -13 -51 -33 -69 -33c-9 0 -17 6 -17 15c0 13 18 39 27 49c18 19 72 52 101 56c15 18 26 25 26 44c0 47 -87 113 -87 152
c0 22 36 125 53 160c-109 -14 -173 -90 -173 -144zM475 251c-26 0 -38 -23 -38 -47c0 -20 6 -42 15 -60l9 7c22 19 46 46 46 70c0 18 -15 30 -32 30zM680 257c-32 -22 -45 -73 -45 -114c0 -43 15 -98 52 -98c28 0 36 31 36 66c0 61 -16 102 -43 146z" />
    <glyph glyph-name="brackettips.up" unicode="&#xe182;" horiz-adv-x="474" 
d="M443 330c12 0 20 -10 20 -20c0 -4 -1 -7 -3 -10c-90 -143 -199 -356 -365 -356h-95v80c0 18 14 32 32 32h63c150 0 249 135 331 265c4 6 10 9 17 9z" />
    <glyph glyph-name="brackettips.down" unicode="&#xe183;" horiz-adv-x="474" 
d="M463 -310c0 -10 -8 -20 -20 -20c-7 0 -13 3 -17 9c-82 130 -181 265 -331 265h-63c-18 0 -32 14 -32 32v80h95c166 0 275 -213 365 -356c2 -3 3 -6 3 -10z" />
    <glyph glyph-name="accordion.discant" unicode="&#xe184;" horiz-adv-x="395" 
d="M396 375c0 -216 -179 -389 -396 -389s-396 173 -396 389s179 389 396 389s396 -173 396 -389zM337 264c11 35 17 73 17 111s-6 76 -17 111h-674c-11 -35 -17 -73 -17 -111s6 -76 17 -111h674zM327 236h-654c53 -129 179 -222 327 -222s274 93 327 222zM-327 514h654
c-53 129 -179 222 -327 222s-274 -93 -327 -222z" />
    <glyph glyph-name="accordion.dot" unicode="&#xe185;" horiz-adv-x="62" 
d="M-62 0c0 35 27 62 62 62s62 -27 62 -62s-27 -62 -62 -62s-62 27 -62 62z" />
    <glyph glyph-name="accordion.freebass" unicode="&#xe186;" horiz-adv-x="270" 
d="M271 250c0 -147 -123 -264 -271 -264s-271 117 -271 264s123 264 271 264s271 -117 271 -264zM229 236h-458c7 -122 106 -222 229 -222s222 100 229 222zM-229 264h458c-7 122 -106 222 -229 222s-222 -100 -229 -222z" />
    <glyph glyph-name="accordion.stdbass" unicode="&#xe187;" horiz-adv-x="520" 
d="M521 500c0 -285 -235 -514 -521 -514s-521 229 -521 514s235 514 521 514s521 -229 521 -514zM479 486h-958c2 -80 24 -156 60 -222h838c36 66 58 142 60 222zM402 236h-804c85 -133 233 -222 402 -222s317 89 402 222zM-479 514h958c-2 80 -24 156 -60 222h-838
c-36 -66 -58 -142 -60 -222zM-402 764h804c-85 133 -233 222 -402 222s-317 -89 -402 -222z" />
    <glyph glyph-name="accordion.bayanbass" unicode="&#xe188;" horiz-adv-x="270" 
d="M250 791c11 0 21 -10 21 -21v-750c0 -11 -10 -20 -21 -20h-500c-11 0 -21 9 -21 20v750c0 11 10 21 21 21h500zM229 41v209h-458v-209h458zM229 291v209h-458v-209h458zM229 541v209h-458v-209h458z" />
    <glyph glyph-name="accordion.oldEE" unicode="&#xe189;" horiz-adv-x="270" 
d="M229 264c0 129 -101 236 -229 236s-229 -107 -229 -236s101 -235 229 -235s229 106 229 235zM271 264c0 -147 -123 -264 -271 -264s-271 117 -271 264s123 265 271 265s271 -118 271 -265zM58 371c0 27 21 48 48 48s48 -21 48 -48s-21 -49 -48 -49c-4 0 -8 1 -12 2
l-50 -41l64 6c8 14 24 24 42 24c27 0 48 -22 48 -49s-21 -48 -48 -48c-18 0 -34 10 -42 24l-64 6l50 -41c4 1 8 2 12 2c27 0 48 -22 48 -49s-21 -48 -48 -48s-48 21 -48 48c0 4 0 9 1 13l-41 49l6 -64c14 -8 24 -24 24 -42c0 -27 -21 -48 -48 -48s-48 21 -48 48
c0 18 10 34 24 42l6 64l-41 -49c1 -4 1 -9 1 -13c0 -27 -21 -48 -48 -48s-48 21 -48 48s21 49 48 49c4 0 8 -1 12 -2l50 41l-64 -6c-8 -14 -24 -24 -42 -24c-27 0 -48 21 -48 48s21 49 48 49c18 0 34 -10 42 -24l64 -6l-50 41c-4 -1 -8 -2 -12 -2c-27 0 -48 22 -48 49
s21 48 48 48s48 -21 48 -48c0 -4 0 -9 -1 -13l41 -49l-6 64c-14 8 -24 23 -24 41c0 27 21 49 48 49s48 -22 48 -49c0 -18 -10 -33 -24 -41l-6 -64l41 49c-1 4 -1 9 -1 13z" />
    <glyph glyph-name="accordion.push" unicode="&#xe18a;" horiz-adv-x="0" 
d="M-238 573c0 11 9 22 22 22c7 0 14 -3 18 -9l194 -276c3 -4 4 -7 4 -12s-1 -9 -4 -13l-194 -276c-4 -6 -11 -9 -18 -9c-13 0 -22 11 -22 22c0 4 1 9 4 13l185 263l-185 263c-3 4 -4 8 -4 12z" />
    <glyph glyph-name="accordion.pull" unicode="&#xe18b;" horiz-adv-x="44" 
d="M44 22c0 -12 -10 -22 -22 -22s-22 10 -22 22v485h-172c-12 0 -22 10 -22 22v44c0 12 10 22 22 22h194c12 0 22 -10 22 -22v-551z" />
    <glyph glyph-name="ties.lyric.short" unicode="&#xe18c;" horiz-adv-x="0" 
d="M0 -190c-66 0 -130 27 -171 78c-3 4 -5 8 -5 12c0 10 10 19 20 19c5 0 11 -2 15 -7c30 -37 80 -39 129 -39h12h12c49 0 99 2 129 39c4 5 10 7 15 7c10 0 20 -9 20 -19c0 -4 -2 -8 -5 -12c-41 -51 -105 -78 -171 -78z" />
    <glyph glyph-name="ties.lyric.default" unicode="&#xe18d;" horiz-adv-x="0" 
d="M0 -196c-84 0 -167 27 -231 82c-5 4 -7 9 -7 14c0 10 9 19 19 19c4 0 9 -2 13 -5c53 -46 126 -46 196 -46h10h10c70 0 143 0 196 46c4 3 9 5 13 5c10 0 19 -9 19 -19c0 -5 -2 -10 -7 -14c-64 -55 -147 -82 -231 -82z" />
    <glyph glyph-name="noteheads.uM2" unicode="&#xe18e;" horiz-adv-x="570" 
d="M543 -208c-18 0 -32 14 -32 32v1035c0 18 14 32 32 32s32 -14 32 -32v-1035c0 -18 -14 -32 -32 -32zM-36 -208c-18 0 -32 14 -32 32v352c0 18 14 32 32 32s32 -14 32 -32v-352c0 -18 -14 -32 -32 -32zM222 109c-48 0 -67 -41 -67 -85c0 -74 56 -133 130 -133
c48 0 67 41 67 85c0 74 -56 133 -130 133zM507 0c0 -44 -35 -78 -74 -100c-55 -30 -117 -41 -179 -41s-125 11 -180 41c-39 22 -74 56 -74 100s35 78 74 100c55 30 118 41 180 41s124 -11 179 -41c39 -22 74 -56 74 -100z" />
    <glyph glyph-name="noteheads.dM2" unicode="&#xe18f;" horiz-adv-x="570" 
d="M543 -208c-18 0 -32 14 -32 32v352c0 18 14 32 32 32s32 -14 32 -32v-352c0 -18 -14 -32 -32 -32zM-36 -891c-18 0 -32 14 -32 32v1035c0 18 14 32 32 32s32 -14 32 -32v-1035c0 -18 -14 -32 -32 -32zM222 109c-48 0 -67 -41 -67 -85c0 -74 56 -133 130 -133
c48 0 67 41 67 85c0 74 -56 133 -130 133zM507 0c0 -44 -35 -78 -74 -100c-55 -30 -117 -41 -179 -41s-125 11 -180 41c-39 22 -74 56 -74 100s35 78 74 100c55 30 118 41 180 41s124 -11 179 -41c39 -22 74 -56 74 -100z" />
    <glyph glyph-name="noteheads.sM1" unicode="&#xe190;" horiz-adv-x="570" 
d="M543 -208c-18 0 -32 14 -32 32v352c0 18 14 32 32 32s32 -14 32 -32v-352c0 -18 -14 -32 -32 -32zM-36 -208c-18 0 -32 14 -32 32v352c0 18 14 32 32 32s32 -14 32 -32v-352c0 -18 -14 -32 -32 -32zM222 109c-48 0 -67 -41 -67 -85c0 -74 56 -133 130 -133
c48 0 67 41 67 85c0 74 -56 133 -130 133zM507 0c0 -44 -35 -78 -74 -100c-55 -30 -117 -41 -179 -41s-125 11 -180 41c-39 22 -74 56 -74 100s35 78 74 100c55 30 118 41 180 41s124 -11 179 -41c39 -22 74 -56 74 -100z" />
    <glyph glyph-name="noteheads.sM1double" unicode="&#xe191;" horiz-adv-x="651" 
d="M629 -208c-14 0 -25 12 -25 26v364c0 14 11 26 25 26s26 -12 26 -26v-364c0 -14 -12 -26 -26 -26zM-122 -208c-14 0 -25 12 -25 26v364c0 14 11 26 25 26s26 -12 26 -26v-364c0 -14 -12 -26 -26 -26zM536 -208c-14 0 -26 12 -26 26v364c0 14 12 26 26 26s25 -12 25 -26
v-364c0 -14 -11 -26 -25 -26zM-28 -208c-14 0 -26 12 -26 26v364c0 14 12 26 26 26s25 -12 25 -26v-364c0 -14 -11 -26 -25 -26zM222 109c-48 0 -67 -41 -67 -85c0 -74 56 -133 130 -133c48 0 67 41 67 85c0 74 -56 133 -130 133zM507 0c0 -44 -35 -78 -74 -100
c-55 -30 -117 -41 -179 -41s-125 11 -180 41c-39 22 -74 56 -74 100s35 78 74 100c55 30 118 41 180 41s124 -11 179 -41c39 -22 74 -56 74 -100z" />
    <glyph glyph-name="noteheads.s0" unicode="&#xe192;" horiz-adv-x="481" 
d="M211 109c-49 0 -66 -43 -66 -88c0 -63 39 -105 86 -122c13 -5 27 -8 40 -8c49 0 66 43 66 88c0 63 -40 105 -87 122c-13 5 -26 8 -39 8zM482 0c0 -43 -33 -78 -71 -100c-51 -30 -111 -41 -170 -41s-119 11 -170 41c-38 22 -71 57 -71 100s33 78 71 100
c51 30 111 41 170 41s119 -11 170 -41c38 -22 71 -57 71 -100z" />
    <glyph glyph-name="noteheads.s1" unicode="&#xe193;" horiz-adv-x="350" 
d="M310 62c0 23 -20 39 -40 39c-4 0 -7 0 -11 -1c-29 -8 -74 -38 -109 -61s-79 -52 -99 -75c-6 -8 -10 -16 -10 -26c0 -23 19 -39 39 -39c4 0 8 0 12 1c29 8 74 38 109 61s79 52 99 75c6 8 10 16 10 26zM0 -60c0 143 116 201 254 201c54 0 97 -22 97 -81
c0 -143 -117 -201 -255 -201c-54 0 -96 22 -96 81z" />
    <glyph glyph-name="noteheads.s2" unicode="&#xe194;" 
d="M211 141c61 0 117 -33 117 -100c0 -71 -52 -121 -99 -149c-34 -20 -73 -33 -112 -33c-61 0 -117 33 -117 100c0 71 52 121 99 149c34 20 73 33 112 33z" />
    <glyph glyph-name="noteheads.s0diamond" unicode="&#xe195;" horiz-adv-x="507" 
d="M217 75c-29 0 -27 -45 -27 -74c0 -47 25 -56 61 -67c13 -4 28 -9 40 -9c29 0 26 45 26 74c0 47 -24 56 -60 67c-13 4 -28 9 -40 9zM507 0c0 -59 -82 -44 -128 -70c-43 -24 -75 -71 -125 -71s-83 47 -126 71c-46 26 -128 11 -128 70s82 44 128 70c43 24 76 71 126 71
s82 -47 125 -71c46 -26 128 -11 128 -70z" />
    <glyph glyph-name="noteheads.s1diamond" unicode="&#xe196;" horiz-adv-x="373" 
d="M295 54c0 16 -14 26 -29 26c-4 0 -8 -1 -12 -2c-25 -8 -59 -30 -87 -48s-62 -41 -79 -60c-6 -7 -9 -16 -9 -24c0 -16 13 -26 28 -26c4 0 8 1 12 2c25 8 59 30 87 48s62 41 79 60c6 7 10 16 10 24zM331 141c19 0 42 -17 42 -41c0 -29 -33 -57 -43 -89
c-12 -38 2 -87 -32 -110c-16 -11 -34 -14 -53 -14c-26 0 -53 6 -80 6c-45 0 -86 -34 -123 -34c-19 0 -42 17 -42 41c0 29 33 57 43 89c12 38 -2 87 32 110c16 11 34 14 53 14c26 0 53 -6 80 -6c45 0 86 34 123 34z" />
    <glyph glyph-name="noteheads.s2diamond" unicode="&#xe197;" horiz-adv-x="377" 
d="M340 141c20 0 38 -18 38 -39c0 -38 -64 -65 -88 -105c-26 -43 -34 -100 -76 -129c-9 -6 -19 -8 -29 -8c-24 0 -49 12 -75 12c-24 0 -50 -13 -72 -13c-20 0 -38 18 -38 39c0 38 64 65 88 105c26 43 34 100 76 129c9 6 19 8 29 8c24 0 49 -12 75 -12c24 0 50 13 72 13z" />
    <glyph glyph-name="noteheads.s0triangle" unicode="&#xe198;" horiz-adv-x="601" 
d="M146 80c25 -48 43 -106 43 -174v-11c61 50 131 93 209 123c-90 13 -174 34 -252 62zM0 165c0 18 25 26 48 26c3 0 6 -1 9 -2c137 -73 303 -124 499 -124h5c21 0 40 -10 40 -27c0 -19 -21 -25 -39 -30c-161 -40 -298 -124 -399 -230c-4 -4 -10 -6 -16 -6
c-24 0 -52 9 -52 28c0 5 2 8 3 12c5 26 8 53 8 79c0 106 -36 182 -88 247c-7 9 -18 14 -18 27z" />
    <glyph glyph-name="noteheads.d1triangle" unicode="&#xe199;" horiz-adv-x="435" 
d="M114 65c17 -43 28 -92 29 -147c39 38 86 71 136 97c-60 11 -115 28 -165 50zM0 145c0 17 18 27 37 27c5 0 10 0 14 -3c91 -62 208 -108 351 -108c17 0 33 -11 33 -27c0 -15 -14 -25 -28 -29c-117 -36 -213 -110 -279 -200c-5 -7 -15 -10 -24 -10c-19 0 -36 11 -36 28
c0 3 0 5 1 8c5 24 7 48 7 73c0 92 -27 160 -68 221c-4 6 -8 12 -8 20z" />
    <glyph glyph-name="noteheads.u1triangle" unicode="&#xe19a;" horiz-adv-x="435" 
d="M114 65c17 -43 28 -92 29 -147c39 38 86 71 136 97c-60 11 -115 28 -165 50zM0 145c0 17 18 27 37 27c5 0 10 0 14 -3c91 -62 208 -108 351 -108c17 0 33 -11 33 -27c0 -15 -14 -25 -28 -29c-117 -36 -213 -110 -279 -200c-5 -7 -15 -10 -24 -10c-19 0 -36 11 -36 28
c0 3 0 5 1 8c5 24 7 48 7 73c0 92 -27 160 -68 221c-4 6 -8 12 -8 20z" />
    <glyph glyph-name="noteheads.u2triangle" unicode="&#xe19b;" horiz-adv-x="362" 
d="M0 144c0 16 13 28 29 28c7 0 13 -2 18 -6c71 -59 168 -105 288 -105c15 0 28 -13 28 -28c0 -13 -8 -24 -20 -28c-100 -37 -182 -108 -233 -195c-14 -23 -53 -17 -53 13c0 27 6 55 6 82c0 92 -22 159 -59 224c-3 4 -4 10 -4 15z" />
    <glyph glyph-name="noteheads.d2triangle" unicode="&#xe19c;" horiz-adv-x="362" 
d="M0 144c0 16 13 28 29 28c7 0 13 -2 18 -6c71 -59 168 -105 288 -105c15 0 28 -13 28 -28c0 -13 -8 -24 -20 -28c-100 -37 -182 -108 -233 -195c-14 -23 -53 -17 -53 13c0 27 6 55 6 82c0 92 -22 159 -59 224c-3 4 -4 10 -4 15z" />
    <glyph glyph-name="noteheads.s0slash" unicode="&#xe19d;" horiz-adv-x="757" 
d="M107 -200h295l249 400h-295zM14 -266c-8 0 -14 7 -14 14c0 2 1 6 2 8l313 503c3 4 7 7 12 7h417c8 0 14 -7 14 -14c0 -2 -1 -6 -2 -8l-313 -503c-3 -4 -7 -7 -12 -7h-417z" />
    <glyph glyph-name="noteheads.s1slash" unicode="&#xe19e;" horiz-adv-x="590" 
d="M107 -200h128l248 400h-127zM14 -266c-8 0 -14 7 -14 14c0 2 1 6 2 8l313 503c3 4 7 7 12 7h249c8 0 14 -7 14 -14c0 -2 -1 -6 -2 -8l-313 -503c-3 -4 -7 -7 -12 -7h-249z" />
    <glyph glyph-name="noteheads.s2slash" unicode="&#xe19f;" horiz-adv-x="432" 
d="M14 -266c-8 0 -14 7 -14 14c0 2 1 6 2 8l313 503c3 4 7 7 12 7h92c8 0 14 -7 14 -14c0 -2 -1 -6 -2 -8l-313 -503c-3 -4 -7 -7 -12 -7h-92z" />
    <glyph glyph-name="noteheads.s0cross" unicode="&#xe1a0;" horiz-adv-x="455" 
d="M238 56c-3 -2 -6 -4 -10 -4s-8 2 -11 4l-90 59l-73 -49l76 -50c5 -4 9 -10 9 -16s-4 -12 -9 -16l-76 -50l73 -49l90 59c3 2 7 4 11 4s7 -2 10 -4l90 -59l74 49l-77 50c-5 4 -8 10 -8 16s3 12 8 16l77 50l-74 49zM228 94l90 60c3 2 6 3 10 3s8 -1 11 -3l108 -72
c5 -4 8 -10 8 -16s-3 -12 -8 -16l-76 -50l76 -50c5 -4 8 -10 8 -16s-3 -12 -8 -16l-108 -72c-3 -2 -7 -3 -11 -3s-7 1 -10 3l-90 60l-90 -60c-3 -2 -7 -3 -11 -3s-7 1 -10 3l-108 72c-5 4 -9 10 -9 16s4 12 9 16l76 50l-76 50c-5 4 -9 10 -9 16s4 12 9 16l108 72
c3 2 6 3 10 3s8 -1 11 -3z" />
    <glyph glyph-name="noteheads.s1cross" unicode="&#xe1a1;" horiz-adv-x="391" 
d="M207 44c-3 -2 -7 -4 -11 -4s-8 2 -11 4l-85 62l-49 -35l76 -56c5 -4 7 -9 7 -15s-2 -11 -7 -15l-76 -56l49 -35l85 62c3 2 7 4 11 4s8 -2 11 -4l85 -62l48 35l-75 56c-5 4 -8 9 -8 15s3 11 8 15l75 56l-48 35zM196 83l85 62c3 2 7 4 11 4s8 -2 11 -4l81 -59
c5 -4 8 -9 8 -15s-3 -12 -8 -16l-75 -55l75 -55c5 -4 8 -10 8 -16s-3 -11 -8 -15l-81 -59c-3 -2 -7 -4 -11 -4s-8 2 -11 4l-85 62l-85 -62c-3 -2 -7 -4 -11 -4s-9 2 -12 4l-80 59c-5 4 -8 9 -8 15s3 12 8 16l75 55l-75 55c-5 4 -8 10 -8 16s3 11 8 15l80 59c3 2 8 4 12 4
s8 -2 11 -4z" />
    <glyph glyph-name="noteheads.s2cross" unicode="&#xe1a2;" 
d="M164 46l108 90c3 3 8 5 12 5s10 -2 13 -5l24 -20c4 -4 7 -9 7 -15s-3 -11 -7 -15l-102 -86l102 -86c4 -4 7 -9 7 -15s-3 -11 -7 -15l-24 -20c-3 -3 -9 -5 -13 -5s-9 2 -12 5l-108 90l-108 -90c-3 -3 -8 -5 -12 -5s-9 2 -12 5l-25 20c-4 4 -7 9 -7 15s3 11 7 15l103 86
l-103 86c-4 4 -7 9 -7 15s3 11 7 15l25 20c3 3 8 5 12 5s9 -2 12 -5z" />
    <glyph glyph-name="noteheads.s2xcircle" unicode="&#xe1a3;" horiz-adv-x="390" 
d="M195 179c103 0 195 -78 195 -179s-92 -179 -195 -179s-195 78 -195 179s92 179 195 179zM161 0l-86 78c-18 -23 -29 -50 -29 -78s11 -55 29 -78zM195 31l86 78c-25 16 -55 24 -86 24s-61 -8 -86 -24zM195 -31l-86 -78c25 -16 55 -24 86 -24s61 8 86 24zM229 0l87 -78
c18 23 28 50 28 78s-10 55 -28 78z" />
    <glyph glyph-name="noteheads.s0do" unicode="&#xe1a4;" 
d="M111 -36h132l-66 82zM18 -109c-10 0 -18 8 -18 18c0 4 1 8 4 11l146 182c3 4 8 7 14 7s11 -3 14 -7l146 -182c3 -3 4 -7 4 -11c0 -10 -8 -18 -18 -18h-292z" />
    <glyph glyph-name="noteheads.d1do" unicode="&#xe1a5;" 
d="M111 -36h132l-66 82zM18 -109c-10 0 -18 8 -18 18c0 4 1 8 4 11l146 182c3 4 8 7 14 7s11 -3 14 -7l146 -182c3 -3 4 -7 4 -11c0 -10 -8 -18 -18 -18h-292z" />
    <glyph glyph-name="noteheads.u1do" unicode="&#xe1a6;" 
d="M111 -36h132l-66 82zM18 -109c-10 0 -18 8 -18 18c0 4 1 8 4 11l146 182c3 4 8 7 14 7s11 -3 14 -7l146 -182c3 -3 4 -7 4 -11c0 -10 -8 -18 -18 -18h-292z" />
    <glyph glyph-name="noteheads.d2do" unicode="&#xe1a7;" 
d="M18 -109c-10 0 -18 8 -18 18c0 4 1 8 4 11l146 182c3 4 8 7 14 7s11 -3 14 -7l146 -182c3 -3 4 -7 4 -11c0 -10 -8 -18 -18 -18h-292z" />
    <glyph glyph-name="noteheads.u2do" unicode="&#xe1a8;" 
d="M18 -109c-10 0 -18 8 -18 18c0 4 1 8 4 11l146 182c3 4 8 7 14 7s11 -3 14 -7l146 -182c3 -3 4 -7 4 -11c0 -10 -8 -18 -18 -18h-292z" />
    <glyph glyph-name="noteheads.s0doThin" unicode="&#xe1a9;" 
d="M64 -68h200l-100 124zM21 -109c-11 0 -21 10 -21 21c0 5 2 9 5 13l143 176c4 5 10 8 16 8s12 -3 16 -8l144 -176c3 -4 4 -8 4 -13c0 -11 -9 -21 -20 -21h-287z" />
    <glyph glyph-name="noteheads.d1doThin" unicode="&#xe1aa;" 
d="M64 -68h200l-100 124zM21 -109c-11 0 -21 10 -21 21c0 5 2 9 5 13l143 176c4 5 10 8 16 8s12 -3 16 -8l144 -176c3 -4 4 -8 4 -13c0 -11 -9 -21 -20 -21h-287z" />
    <glyph glyph-name="noteheads.u1doThin" unicode="&#xe1ab;" 
d="M64 -68h200l-100 124zM21 -109c-11 0 -21 10 -21 21c0 5 2 9 5 13l143 176c4 5 10 8 16 8s12 -3 16 -8l144 -176c3 -4 4 -8 4 -13c0 -11 -9 -21 -20 -21h-287z" />
    <glyph glyph-name="noteheads.d2doThin" unicode="&#xe1ac;" 
d="M21 -109c-11 0 -21 10 -21 21c0 5 2 9 5 13l143 176c4 5 10 8 16 8s12 -3 16 -8l144 -176c3 -4 4 -8 4 -13c0 -11 -9 -21 -20 -21h-287z" />
    <glyph glyph-name="noteheads.u2doThin" unicode="&#xe1ad;" 
d="M21 -109c-11 0 -21 10 -21 21c0 5 2 9 5 13l143 176c4 5 10 8 16 8s12 -3 16 -8l144 -176c3 -4 4 -8 4 -13c0 -11 -9 -21 -20 -21h-287z" />
    <glyph glyph-name="noteheads.s0re" unicode="&#xe1ae;" 
d="M33 44v-7c0 -54 68 -64 131 -64s131 10 131 64v7h-262zM0 93c0 9 7 16 16 16h296c9 0 16 -7 16 -16v-56c0 -84 -76 -146 -164 -146s-164 62 -164 146v56z" />
    <glyph glyph-name="noteheads.u1re" unicode="&#xe1af;" 
d="M33 44v-7c0 -54 68 -64 131 -64s131 10 131 64v7h-262zM0 93c0 9 7 16 16 16h296c9 0 16 -7 16 -16v-56c0 -84 -76 -146 -164 -146s-164 62 -164 146v56z" />
    <glyph glyph-name="noteheads.d1re" unicode="&#xe1b0;" 
d="M33 44v-7c0 -54 68 -64 131 -64s131 10 131 64v7h-262zM0 93c0 9 7 16 16 16h296c9 0 16 -7 16 -16v-56c0 -84 -76 -146 -164 -146s-164 62 -164 146v56z" />
    <glyph glyph-name="noteheads.u2re" unicode="&#xe1b1;" 
d="M0 93c0 9 7 16 16 16h296c9 0 16 -7 16 -16v-56c0 -84 -76 -146 -164 -146s-164 62 -164 146v56z" />
    <glyph glyph-name="noteheads.d2re" unicode="&#xe1b2;" 
d="M0 93c0 9 7 16 16 16h296c9 0 16 -7 16 -16v-56c0 -84 -76 -146 -164 -146s-164 62 -164 146v56z" />
    <glyph glyph-name="noteheads.s0reThin" unicode="&#xe1b3;" 
d="M41 68v-33c0 -55 61 -82 123 -82s123 27 123 82v33h-246zM0 88c0 11 10 21 21 21h287c11 0 20 -10 20 -21v-53c0 -84 -77 -144 -164 -144s-164 60 -164 144v53z" />
    <glyph glyph-name="noteheads.u1reThin" unicode="&#xe1b4;" 
d="M41 68v-33c0 -55 61 -82 123 -82s123 27 123 82v33h-246zM0 88c0 11 10 21 21 21h287c11 0 20 -10 20 -21v-53c0 -84 -77 -144 -164 -144s-164 60 -164 144v53z" />
    <glyph glyph-name="noteheads.d1reThin" unicode="&#xe1b5;" 
d="M41 68v-33c0 -55 61 -82 123 -82s123 27 123 82v33h-246zM0 88c0 11 10 21 21 21h287c11 0 20 -10 20 -21v-53c0 -84 -77 -144 -164 -144s-164 60 -164 144v53z" />
    <glyph glyph-name="noteheads.u2reThin" unicode="&#xe1b6;" 
d="M0 88c0 11 10 21 21 21h287c11 0 20 -10 20 -21v-53c0 -84 -77 -144 -164 -144s-164 60 -164 144v53z" />
    <glyph glyph-name="noteheads.d2reThin" unicode="&#xe1b7;" 
d="M0 88c0 11 10 21 21 21h287c11 0 20 -10 20 -21v-53c0 -84 -77 -144 -164 -144s-164 60 -164 144v53z" />
    <glyph glyph-name="noteheads.s0mi" unicode="&#xe1b8;" horiz-adv-x="393" 
d="M303 -19l-143 73l-69 -35l143 -73zM9 -15c-6 3 -9 9 -9 15s3 12 9 15l180 92c2 1 5 2 8 2s6 -1 8 -2l180 -92c6 -3 9 -9 9 -15s-3 -12 -9 -15l-180 -92c-2 -1 -5 -2 -8 -2s-6 1 -8 2z" />
    <glyph glyph-name="noteheads.s1mi" unicode="&#xe1b9;" horiz-adv-x="393" 
d="M303 -19l-143 73l-69 -35l143 -73zM9 -15c-6 3 -9 9 -9 15s3 12 9 15l180 92c2 1 5 2 8 2s6 -1 8 -2l180 -92c6 -3 9 -9 9 -15s-3 -12 -9 -15l-180 -92c-2 -1 -5 -2 -8 -2s-6 1 -8 2z" />
    <glyph glyph-name="noteheads.s2mi" unicode="&#xe1ba;" horiz-adv-x="393" 
d="M9 -15c-6 3 -9 9 -9 15s3 12 9 15l180 92c2 1 5 2 8 2s6 -1 8 -2l180 -92c6 -3 9 -9 9 -15s-3 -12 -9 -15l-180 -92c-2 -1 -5 -2 -8 -2s-6 1 -8 2z" />
    <glyph glyph-name="noteheads.s0miMirror" unicode="&#xe1bb;" horiz-adv-x="393" 
d="M91 -19l69 -35l143 73l-69 35zM9 -15c-6 3 -9 9 -9 15s3 12 9 15l180 92c2 1 5 2 8 2s6 -1 8 -2l180 -92c6 -3 9 -9 9 -15s-3 -12 -9 -15l-180 -92c-2 -1 -5 -2 -8 -2s-6 1 -8 2z" />
    <glyph glyph-name="noteheads.s1miMirror" unicode="&#xe1bc;" horiz-adv-x="393" 
d="M91 -19l69 -35l143 73l-69 35zM9 -15c-6 3 -9 9 -9 15s3 12 9 15l180 92c2 1 5 2 8 2s6 -1 8 -2l180 -92c6 -3 9 -9 9 -15s-3 -12 -9 -15l-180 -92c-2 -1 -5 -2 -8 -2s-6 1 -8 2z" />
    <glyph glyph-name="noteheads.s2miMirror" unicode="&#xe1bd;" horiz-adv-x="393" 
d="M9 -15c-6 3 -9 9 -9 15s3 12 9 15l180 92c2 1 5 2 8 2s6 -1 8 -2l180 -92c6 -3 9 -9 9 -15s-3 -12 -9 -15l-180 -92c-2 -1 -5 -2 -8 -2s-6 1 -8 2z" />
    <glyph glyph-name="noteheads.s0miThin" unicode="&#xe1be;" horiz-adv-x="393" 
d="M327 0l-130 65l-130 -65l130 -65zM11 -18c-7 4 -11 10 -11 18s4 14 11 18l177 89c3 1 6 2 9 2s6 -1 9 -2l176 -89c7 -4 12 -10 12 -18s-5 -14 -12 -18l-176 -89c-3 -1 -6 -2 -9 -2s-6 1 -9 2z" />
    <glyph glyph-name="noteheads.s1miThin" unicode="&#xe1bf;" horiz-adv-x="393" 
d="M327 0l-130 65l-130 -65l130 -65zM11 -18c-7 4 -11 10 -11 18s4 14 11 18l177 89c3 1 6 2 9 2s6 -1 9 -2l176 -89c7 -4 12 -10 12 -18s-5 -14 -12 -18l-176 -89c-3 -1 -6 -2 -9 -2s-6 1 -9 2z" />
    <glyph glyph-name="noteheads.s2miThin" unicode="&#xe1c0;" horiz-adv-x="393" 
d="M11 -18c-7 4 -11 10 -11 18s4 14 11 18l177 89c3 1 6 2 9 2s6 -1 9 -2l176 -89c7 -4 12 -10 12 -18s-5 -14 -12 -18l-176 -89c-3 -1 -6 -2 -9 -2s-6 1 -9 2z" />
    <glyph glyph-name="noteheads.u0fa" unicode="&#xe1c1;" 
d="M287 37h-144l144 -89v89zM0 89c0 11 10 20 21 20h287c11 0 20 -9 20 -20v-178c0 -11 -9 -20 -20 -20c-4 0 -8 1 -11 3l-287 177c-6 4 -10 11 -10 18z" />
    <glyph glyph-name="noteheads.d0fa" unicode="&#xe1c2;" 
d="M41 -37h144l-144 89v-89zM328 -89c0 -11 -9 -20 -20 -20h-287c-11 0 -21 9 -21 20v178c0 11 10 20 21 20c4 0 7 -1 10 -3l287 -177c6 -4 10 -11 10 -18z" />
    <glyph glyph-name="noteheads.u1fa" unicode="&#xe1c3;" 
d="M287 37h-144l144 -89v89zM0 89c0 11 10 20 21 20h287c11 0 20 -9 20 -20v-178c0 -11 -9 -20 -20 -20c-4 0 -8 1 -11 3l-287 177c-6 4 -10 11 -10 18z" />
    <glyph glyph-name="noteheads.d1fa" unicode="&#xe1c4;" 
d="M41 -37h144l-144 89v-89zM328 -89c0 -11 -9 -20 -20 -20h-287c-11 0 -21 9 -21 20v178c0 11 10 20 21 20c4 0 7 -1 10 -3l287 -177c6 -4 10 -11 10 -18z" />
    <glyph glyph-name="noteheads.u2fa" unicode="&#xe1c5;" 
d="M0 89c0 11 10 20 21 20h287c11 0 20 -9 20 -20v-178c0 -11 -9 -20 -20 -20c-4 0 -8 1 -11 3l-287 177c-6 4 -10 11 -10 18z" />
    <glyph glyph-name="noteheads.d2fa" unicode="&#xe1c6;" 
d="M328 -89c0 -11 -9 -20 -20 -20h-287c-11 0 -21 9 -21 20v178c0 11 10 20 21 20c4 0 7 -1 10 -3l287 -177c6 -4 10 -11 10 -18z" />
    <glyph glyph-name="noteheads.u0faThin" unicode="&#xe1c7;" 
d="M287 68h-193l193 -119v119zM0 88c0 11 10 21 21 21h287c11 0 20 -10 20 -21v-176c0 -11 -9 -21 -20 -21c-4 0 -8 1 -11 3l-287 177c-6 4 -10 10 -10 17z" />
    <glyph glyph-name="noteheads.d0faThin" unicode="&#xe1c8;" 
d="M41 -68h194l-194 119v-119zM328 -88c0 -11 -9 -21 -20 -21h-287c-11 0 -21 10 -21 21v176c0 11 10 21 21 21c4 0 8 -1 11 -3l286 -177c6 -4 10 -10 10 -17z" />
    <glyph glyph-name="noteheads.u1faThin" unicode="&#xe1c9;" 
d="M287 68h-193l193 -119v119zM0 88c0 11 10 21 21 21h287c11 0 20 -10 20 -21v-176c0 -11 -9 -21 -20 -21c-4 0 -8 1 -11 3l-287 177c-6 4 -10 10 -10 17z" />
    <glyph glyph-name="noteheads.d1faThin" unicode="&#xe1ca;" 
d="M41 -68h194l-194 119v-119zM328 -88c0 -11 -9 -21 -20 -21h-287c-11 0 -21 10 -21 21v176c0 11 10 21 21 21c4 0 8 -1 11 -3l286 -177c6 -4 10 -10 10 -17z" />
    <glyph glyph-name="noteheads.u2faThin" unicode="&#xe1cb;" 
d="M0 88c0 11 10 21 21 21h287c11 0 20 -10 20 -21v-176c0 -11 -9 -21 -20 -21c-4 0 -8 1 -11 3l-287 177c-6 4 -10 10 -10 17z" />
    <glyph glyph-name="noteheads.d2faThin" unicode="&#xe1cc;" 
d="M328 -88c0 -11 -9 -21 -20 -21h-287c-11 0 -21 10 -21 21v176c0 11 10 21 21 21c4 0 8 -1 11 -3l286 -177c6 -4 10 -10 10 -17z" />
    <glyph glyph-name="noteheads.s0sol" unicode="&#xe1cd;" horiz-adv-x="350" 
d="M310 62c0 23 -20 39 -40 39c-4 0 -7 0 -11 -1c-29 -8 -74 -38 -109 -61s-79 -52 -99 -75c-6 -8 -10 -16 -10 -26c0 -23 19 -39 39 -39c4 0 8 0 12 1c29 8 74 38 109 61s79 52 99 75c6 8 10 16 10 26zM0 -60c0 143 116 201 254 201c54 0 97 -22 97 -81
c0 -143 -117 -201 -255 -201c-54 0 -96 22 -96 81z" />
    <glyph glyph-name="noteheads.s1sol" unicode="&#xe1ce;" horiz-adv-x="350" 
d="M310 62c0 23 -20 39 -40 39c-4 0 -7 0 -11 -1c-29 -8 -74 -38 -109 -61s-79 -52 -99 -75c-6 -8 -10 -16 -10 -26c0 -23 19 -39 39 -39c4 0 8 0 12 1c29 8 74 38 109 61s79 52 99 75c6 8 10 16 10 26zM0 -60c0 143 116 201 254 201c54 0 97 -22 97 -81
c0 -143 -117 -201 -255 -201c-54 0 -96 22 -96 81z" />
    <glyph glyph-name="noteheads.s2sol" unicode="&#xe1cf;" horiz-adv-x="350" 
d="M0 -60c0 143 116 201 254 201c54 0 97 -22 97 -81c0 -143 -117 -201 -255 -201c-54 0 -96 22 -96 81z" />
    <glyph glyph-name="noteheads.s0la" unicode="&#xe1d0;" 
d="M38 33v-66h252v66h-252zM19 109h290c11 0 19 -8 19 -19v-180c0 -11 -8 -19 -19 -19h-290c-11 0 -19 8 -19 19v180c0 11 8 19 19 19z" />
    <glyph glyph-name="noteheads.s1la" unicode="&#xe1d1;" 
d="M38 33v-66h252v66h-252zM19 109h290c11 0 19 -8 19 -19v-180c0 -11 -8 -19 -19 -19h-290c-11 0 -19 8 -19 19v180c0 11 8 19 19 19z" />
    <glyph glyph-name="noteheads.s2la" unicode="&#xe1d2;" 
d="M19 109h290c11 0 19 -8 19 -19v-180c0 -11 -8 -19 -19 -19h-290c-11 0 -19 8 -19 19v180c0 11 8 19 19 19z" />
    <glyph glyph-name="noteheads.s0laThin" unicode="&#xe1d3;" 
d="M41 68v-136h246v136h-246zM21 109h287c11 0 20 -10 20 -21v-176c0 -11 -9 -21 -20 -21h-287c-11 0 -21 10 -21 21v176c0 11 10 21 21 21z" />
    <glyph glyph-name="noteheads.s1laThin" unicode="&#xe1d4;" 
d="M41 68v-136h246v136h-246zM21 109h287c11 0 20 -10 20 -21v-176c0 -11 -9 -21 -20 -21h-287c-11 0 -21 10 -21 21v176c0 11 10 21 21 21z" />
    <glyph glyph-name="noteheads.s2laThin" unicode="&#xe1d5;" 
d="M21 109h287c11 0 20 -10 20 -21v-176c0 -11 -9 -21 -20 -21h-287c-11 0 -21 10 -21 21v176c0 11 10 21 21 21z" />
    <glyph glyph-name="noteheads.s0ti" unicode="&#xe1d6;" 
d="M164 -26l90 32c-14 37 -50 62 -90 62s-76 -25 -90 -62zM177 -105c-4 -3 -8 -4 -13 -4s-9 1 -13 4l-143 114c-5 4 -8 9 -8 16c0 5 1 10 4 13c41 46 99 71 160 71s119 -25 160 -71c3 -3 4 -8 4 -13c0 -7 -3 -12 -8 -16z" />
    <glyph glyph-name="noteheads.u1ti" unicode="&#xe1d7;" 
d="M164 -26l90 32c-14 37 -50 62 -90 62s-76 -25 -90 -62zM177 -105c-4 -3 -8 -4 -13 -4s-9 1 -13 4l-143 114c-5 4 -8 9 -8 16c0 5 1 10 4 13c41 46 99 71 160 71s119 -25 160 -71c3 -3 4 -8 4 -13c0 -7 -3 -12 -8 -16z" />
    <glyph glyph-name="noteheads.d1ti" unicode="&#xe1d8;" 
d="M164 -26l90 32c-14 37 -50 62 -90 62s-76 -25 -90 -62zM177 -105c-4 -3 -8 -4 -13 -4s-9 1 -13 4l-143 114c-5 4 -8 9 -8 16c0 5 1 10 4 13c41 46 99 71 160 71s119 -25 160 -71c3 -3 4 -8 4 -13c0 -7 -3 -12 -8 -16z" />
    <glyph glyph-name="noteheads.u2ti" unicode="&#xe1d9;" 
d="M177 -105c-4 -3 -8 -4 -13 -4s-9 1 -13 4l-143 114c-5 4 -8 9 -8 16c0 5 1 10 4 13c41 46 99 71 160 71s119 -25 160 -71c3 -3 4 -8 4 -13c0 -7 -3 -12 -8 -16z" />
    <glyph glyph-name="noteheads.d2ti" unicode="&#xe1da;" 
d="M177 -105c-4 -3 -8 -4 -13 -4s-9 1 -13 4l-143 114c-5 4 -8 9 -8 16c0 5 1 10 4 13c41 46 99 71 160 71s119 -25 160 -71c3 -3 4 -8 4 -13c0 -7 -3 -12 -8 -16z" />
    <glyph glyph-name="noteheads.s0tiThin" unicode="&#xe1db;" 
d="M164 -68l126 81c-33 35 -78 55 -126 55s-93 -20 -126 -55zM177 -105c-4 -3 -8 -4 -13 -4s-9 1 -13 4l-143 114c-5 4 -8 9 -8 16c0 5 1 10 4 13c41 46 99 71 160 71s119 -25 160 -71c3 -3 4 -8 4 -13c0 -7 -3 -12 -8 -16z" />
    <glyph glyph-name="noteheads.u1tiThin" unicode="&#xe1dc;" 
d="M164 -68l126 81c-33 35 -78 55 -126 55s-93 -20 -126 -55zM177 -105c-4 -3 -8 -4 -13 -4s-9 1 -13 4l-143 114c-5 4 -8 9 -8 16c0 5 1 10 4 13c41 46 99 71 160 71s119 -25 160 -71c3 -3 4 -8 4 -13c0 -7 -3 -12 -8 -16z" />
    <glyph glyph-name="noteheads.d1tiThin" unicode="&#xe1dd;" 
d="M164 -68l126 81c-33 35 -78 55 -126 55s-93 -20 -126 -55zM177 -105c-4 -3 -8 -4 -13 -4s-9 1 -13 4l-143 114c-5 4 -8 9 -8 16c0 5 1 10 4 13c41 46 99 71 160 71s119 -25 160 -71c3 -3 4 -8 4 -13c0 -7 -3 -12 -8 -16z" />
    <glyph glyph-name="noteheads.u2tiThin" unicode="&#xe1de;" 
d="M177 -105c-4 -3 -8 -4 -13 -4s-9 1 -13 4l-143 114c-5 4 -8 9 -8 16c0 5 1 10 4 13c41 46 99 71 160 71s119 -25 160 -71c3 -3 4 -8 4 -13c0 -7 -3 -12 -8 -16z" />
    <glyph glyph-name="noteheads.d2tiThin" unicode="&#xe1df;" 
d="M177 -105c-4 -3 -8 -4 -13 -4s-9 1 -13 4l-143 114c-5 4 -8 9 -8 16c0 5 1 10 4 13c41 46 99 71 160 71s119 -25 160 -71c3 -3 4 -8 4 -13c0 -7 -3 -12 -8 -16z" />
    <glyph glyph-name="noteheads.u0doFunk" unicode="&#xe1e0;" horiz-adv-x="246" 
d="M39 44v-88c75 0 169 0 169 44s-94 44 -169 44zM19 109c108 0 227 -16 227 -109s-119 -109 -227 -109c-11 0 -19 8 -19 19v180c0 11 8 19 19 19z" />
    <glyph glyph-name="noteheads.d0doFunk" unicode="&#xe1e1;" horiz-adv-x="246" 
d="M208 -44v88c-75 0 -169 0 -169 -44s94 -44 169 -44zM227 -109c-108 0 -227 16 -227 109s119 109 227 109c11 0 19 -8 19 -19v-180c0 -11 -8 -19 -19 -19z" />
    <glyph glyph-name="noteheads.u1doFunk" unicode="&#xe1e2;" horiz-adv-x="246" 
d="M39 44v-88c75 0 169 0 169 44s-94 44 -169 44zM19 109c108 0 227 -16 227 -109s-119 -109 -227 -109c-11 0 -19 8 -19 19v180c0 11 8 19 19 19z" />
    <glyph glyph-name="noteheads.d1doFunk" unicode="&#xe1e3;" horiz-adv-x="246" 
d="M208 -44v88c-75 0 -169 0 -169 -44s94 -44 169 -44zM227 -109c-108 0 -227 16 -227 109s119 109 227 109c11 0 19 -8 19 -19v-180c0 -11 -8 -19 -19 -19z" />
    <glyph glyph-name="noteheads.u2doFunk" unicode="&#xe1e4;" horiz-adv-x="246" 
d="M19 109c108 0 227 -16 227 -109s-119 -109 -227 -109c-11 0 -19 8 -19 19v180c0 11 8 19 19 19z" />
    <glyph glyph-name="noteheads.d2doFunk" unicode="&#xe1e5;" horiz-adv-x="246" 
d="M227 -109c-108 0 -227 16 -227 109s119 109 227 109c11 0 19 -8 19 -19v-180c0 -11 -8 -19 -19 -19z" />
    <glyph glyph-name="noteheads.u0reFunk" unicode="&#xe1e6;" horiz-adv-x="246" 
d="M160 0l-103 31c1 -10 2 -21 2 -31s-1 -21 -2 -31zM235 18c7 -3 11 -10 11 -18s-4 -15 -11 -18l-208 -90c-2 -1 -5 -1 -8 -1c-11 0 -19 8 -19 19c0 3 1 6 2 9c9 26 19 53 19 81s-10 55 -19 81c-1 3 -2 6 -2 9c0 11 8 19 19 19c3 0 6 0 8 -1z" />
    <glyph glyph-name="noteheads.d0reFunk" unicode="&#xe1e7;" horiz-adv-x="246" 
d="M86 0l103 -31c-1 10 -2 21 -2 31s1 21 2 31zM12 -18c-7 3 -12 10 -12 18s5 15 12 18l207 90c2 1 5 1 8 1c11 0 19 -8 19 -19c0 -3 -1 -6 -2 -9c-9 -26 -19 -53 -19 -81s10 -55 19 -81c1 -3 2 -6 2 -9c0 -11 -8 -19 -19 -19c-3 0 -6 0 -8 1z" />
    <glyph glyph-name="noteheads.u1reFunk" unicode="&#xe1e8;" horiz-adv-x="246" 
d="M160 0l-103 31c1 -10 2 -21 2 -31s-1 -21 -2 -31zM235 18c7 -3 11 -10 11 -18s-4 -15 -11 -18l-208 -90c-2 -1 -5 -1 -8 -1c-11 0 -19 8 -19 19c0 3 1 6 2 9c9 26 19 53 19 81s-10 55 -19 81c-1 3 -2 6 -2 9c0 11 8 19 19 19c3 0 6 0 8 -1z" />
    <glyph glyph-name="noteheads.d1reFunk" unicode="&#xe1e9;" horiz-adv-x="246" 
d="M86 0l103 -31c-1 10 -2 21 -2 31s1 21 2 31zM12 -18c-7 3 -12 10 -12 18s5 15 12 18l207 90c2 1 5 1 8 1c11 0 19 -8 19 -19c0 -3 -1 -6 -2 -9c-9 -26 -19 -53 -19 -81s10 -55 19 -81c1 -3 2 -6 2 -9c0 -11 -8 -19 -19 -19c-3 0 -6 0 -8 1z" />
    <glyph glyph-name="noteheads.u2reFunk" unicode="&#xe1ea;" horiz-adv-x="246" 
d="M235 18c7 -3 11 -10 11 -18s-4 -15 -11 -18l-208 -90c-2 -1 -5 -1 -8 -1c-11 0 -19 8 -19 19c0 3 1 6 2 9c9 26 19 53 19 81s-10 55 -19 81c-1 3 -2 6 -2 9c0 11 8 19 19 19c3 0 6 0 8 -1z" />
    <glyph glyph-name="noteheads.d2reFunk" unicode="&#xe1eb;" horiz-adv-x="246" 
d="M12 -18c-7 3 -12 10 -12 18s5 15 12 18l207 90c2 1 5 1 8 1c11 0 19 -8 19 -19c0 -3 -1 -6 -2 -9c-9 -26 -19 -53 -19 -81s10 -55 19 -81c1 -3 2 -6 2 -9c0 -11 -8 -19 -19 -19c-3 0 -6 0 -8 1z" />
    <glyph glyph-name="noteheads.u0miFunk" unicode="&#xe1ec;" horiz-adv-x="295" 
d="M233 -16l-108 77l-63 -45l108 -77zM6 -12c-4 3 -6 7 -6 12s2 9 6 12l133 94c2 2 6 3 9 3s6 -1 8 -3l133 -94c4 -3 6 -7 6 -12s-2 -9 -6 -12l-133 -94c-2 -2 -5 -3 -8 -3s-7 1 -9 3z" />
    <glyph glyph-name="noteheads.d0miFunk" unicode="&#xe1ed;" horiz-adv-x="295" 
d="M62 -16l63 -45l108 77l-63 45zM6 -12c-4 3 -6 7 -6 12s2 9 6 12l133 94c2 2 6 3 9 3s6 -1 8 -3l133 -94c4 -3 6 -7 6 -12s-2 -9 -6 -12l-133 -94c-2 -2 -5 -3 -8 -3s-7 1 -9 3z" />
    <glyph glyph-name="noteheads.u1miFunk" unicode="&#xe1ee;" horiz-adv-x="295" 
d="M233 -16l-108 77l-63 -45l108 -77zM6 -12c-4 3 -6 7 -6 12s2 9 6 12l133 94c2 2 6 3 9 3s6 -1 8 -3l133 -94c4 -3 6 -7 6 -12s-2 -9 -6 -12l-133 -94c-2 -2 -5 -3 -8 -3s-7 1 -9 3z" />
    <glyph glyph-name="noteheads.d1miFunk" unicode="&#xe1ef;" horiz-adv-x="295" 
d="M62 -16l63 -45l108 77l-63 45zM6 -12c-4 3 -6 7 -6 12s2 9 6 12l133 94c2 2 6 3 9 3s6 -1 8 -3l133 -94c4 -3 6 -7 6 -12s-2 -9 -6 -12l-133 -94c-2 -2 -5 -3 -8 -3s-7 1 -9 3z" />
    <glyph glyph-name="noteheads.s2miFunk" unicode="&#xe1f0;" horiz-adv-x="295" 
d="M6 -12c-4 3 -6 7 -6 12s2 9 6 12l133 94c2 2 6 3 9 3s6 -1 8 -3l133 -94c4 -3 6 -7 6 -12s-2 -9 -6 -12l-133 -94c-2 -2 -5 -3 -8 -3s-7 1 -9 3z" />
    <glyph glyph-name="noteheads.u0faFunk" unicode="&#xe1f1;" horiz-adv-x="246" 
d="M208 37h-99l99 -86v86zM0 90c0 10 9 19 19 19h208c10 0 19 -9 19 -19v-180c0 -10 -9 -19 -19 -19c-5 0 -9 2 -12 5l-208 180c-4 4 -7 9 -7 14z" />
    <glyph glyph-name="noteheads.d0faFunk" unicode="&#xe1f2;" horiz-adv-x="246" 
d="M38 -37h99l-99 86v-86zM246 -90c0 -10 -9 -19 -19 -19h-208c-10 0 -19 9 -19 19v180c0 10 9 19 19 19c5 0 9 -2 12 -5l209 -180c4 -4 6 -9 6 -14z" />
    <glyph glyph-name="noteheads.u1faFunk" unicode="&#xe1f3;" horiz-adv-x="246" 
d="M208 37h-99l99 -86v86zM0 90c0 10 9 19 19 19h208c10 0 19 -9 19 -19v-180c0 -10 -9 -19 -19 -19c-5 0 -9 2 -12 5l-208 180c-4 4 -7 9 -7 14z" />
    <glyph glyph-name="noteheads.d1faFunk" unicode="&#xe1f4;" horiz-adv-x="246" 
d="M38 -37h99l-99 86v-86zM246 -90c0 -10 -9 -19 -19 -19h-208c-10 0 -19 9 -19 19v180c0 10 9 19 19 19c5 0 9 -2 12 -5l209 -180c4 -4 6 -9 6 -14z" />
    <glyph glyph-name="noteheads.u2faFunk" unicode="&#xe1f5;" horiz-adv-x="246" 
d="M0 90c0 10 9 19 19 19h208c10 0 19 -9 19 -19v-180c0 -10 -9 -19 -19 -19c-5 0 -9 2 -12 5l-208 180c-4 4 -7 9 -7 14z" />
    <glyph glyph-name="noteheads.d2faFunk" unicode="&#xe1f6;" horiz-adv-x="246" 
d="M246 -90c0 -10 -9 -19 -19 -19h-208c-10 0 -19 9 -19 19v180c0 10 9 19 19 19c5 0 9 -2 12 -5l209 -180c4 -4 6 -9 6 -14z" />
    <glyph glyph-name="noteheads.s0solFunk" unicode="&#xe1f7;" horiz-adv-x="233" 
d="M182 24c0 19 -16 29 -32 29c-21 0 -38 -10 -54 -21c-18 -11 -45 -28 -45 -56c0 -19 16 -29 32 -29c21 0 38 10 54 21c18 11 45 28 45 56zM136 109c53 0 97 -37 97 -92c0 -70 -66 -126 -136 -126c-53 0 -97 37 -97 92c0 70 66 126 136 126z" />
    <glyph glyph-name="noteheads.s1solFunk" unicode="&#xe1f8;" horiz-adv-x="233" 
d="M182 24c0 19 -16 29 -32 29c-21 0 -38 -10 -54 -21c-18 -11 -45 -28 -45 -56c0 -19 16 -29 32 -29c21 0 38 10 54 21c18 11 45 28 45 56zM136 109c53 0 97 -37 97 -92c0 -70 -66 -126 -136 -126c-53 0 -97 37 -97 92c0 70 66 126 136 126z" />
    <glyph glyph-name="noteheads.s2solFunk" unicode="&#xe1f9;" horiz-adv-x="233" 
d="M136 109c53 0 97 -37 97 -92c0 -70 -66 -126 -136 -126c-53 0 -97 37 -97 92c0 70 66 126 136 126z" />
    <glyph glyph-name="noteheads.s0laFunk" unicode="&#xe1fa;" horiz-adv-x="246" 
d="M41 78v-156h164v156h-164zM21 109h204c11 0 21 -10 21 -21v-176c0 -11 -10 -21 -21 -21h-204c-11 0 -21 10 -21 21v176c0 11 10 21 21 21z" />
    <glyph glyph-name="noteheads.s1laFunk" unicode="&#xe1fb;" horiz-adv-x="246" 
d="M41 78v-156h164v156h-164zM21 109h204c11 0 21 -10 21 -21v-176c0 -11 -10 -21 -21 -21h-204c-11 0 -21 10 -21 21v176c0 11 10 21 21 21z" />
    <glyph glyph-name="noteheads.s2laFunk" unicode="&#xe1fc;" horiz-adv-x="246" 
d="M21 109h204c11 0 21 -10 21 -21v-176c0 -11 -10 -21 -21 -21h-204c-11 0 -21 10 -21 21v176c0 11 10 21 21 21z" />
    <glyph glyph-name="noteheads.u0tiFunk" unicode="&#xe1fd;" horiz-adv-x="246" 
d="M168 0l-116 44c-7 -14 -11 -29 -11 -44s4 -30 11 -44zM235 18c7 -4 11 -10 11 -18s-4 -14 -11 -18l-164 -89c-3 -2 -5 -2 -8 -2c-8 0 -14 6 -20 11c-28 25 -43 61 -43 98s15 73 43 98c6 5 12 11 20 11c3 0 5 0 8 -2z" />
    <glyph glyph-name="noteheads.d0tiFunk" unicode="&#xe1fe;" horiz-adv-x="246" 
d="M78 0l117 -44c7 14 10 29 10 44s-3 30 -10 44zM11 -18c-7 4 -11 10 -11 18s4 14 11 18l164 89c3 2 5 2 8 2c8 0 14 -6 20 -11c28 -25 43 -61 43 -98s-15 -73 -43 -98c-6 -5 -12 -11 -20 -11c-3 0 -5 0 -8 2z" />
    <glyph glyph-name="noteheads.u1tiFunk" unicode="&#xe1ff;" horiz-adv-x="246" 
d="M168 0l-116 44c-7 -14 -11 -29 -11 -44s4 -30 11 -44zM235 18c7 -4 11 -10 11 -18s-4 -14 -11 -18l-164 -89c-3 -2 -5 -2 -8 -2c-8 0 -14 6 -20 11c-28 25 -43 61 -43 98s15 73 43 98c6 5 12 11 20 11c3 0 5 0 8 -2z" />
    <glyph glyph-name="noteheads.d1tiFunk" unicode="&#xe200;" horiz-adv-x="246" 
d="M78 0l117 -44c7 14 10 29 10 44s-3 30 -10 44zM11 -18c-7 4 -11 10 -11 18s4 14 11 18l164 89c3 2 5 2 8 2c8 0 14 -6 20 -11c28 -25 43 -61 43 -98s-15 -73 -43 -98c-6 -5 -12 -11 -20 -11c-3 0 -5 0 -8 2z" />
    <glyph glyph-name="noteheads.u2tiFunk" unicode="&#xe201;" horiz-adv-x="246" 
d="M235 18c7 -4 11 -10 11 -18s-4 -14 -11 -18l-164 -89c-3 -2 -5 -2 -8 -2c-8 0 -14 6 -20 11c-28 25 -43 61 -43 98s15 73 43 98c6 5 12 11 20 11c3 0 5 0 8 -2z" />
    <glyph glyph-name="noteheads.d2tiFunk" unicode="&#xe202;" horiz-adv-x="246" 
d="M11 -18c-7 4 -11 10 -11 18s4 14 11 18l164 89c3 2 5 2 8 2c8 0 14 -6 20 -11c28 -25 43 -61 43 -98s-15 -73 -43 -98c-6 -5 -12 -11 -20 -11c-3 0 -5 0 -8 2z" />
    <glyph glyph-name="noteheads.s0doWalker" unicode="&#xe203;" horiz-adv-x="246" 
d="M81 47l-27 -94h138l-27 94h-84zM72 109h102c9 0 17 -6 20 -15l51 -177c1 -2 1 -3 1 -5c0 -11 -9 -21 -21 -21h-204c-12 0 -21 10 -21 21c0 2 0 3 1 5l51 177c3 9 11 15 20 15z" />
    <glyph glyph-name="noteheads.u1doWalker" unicode="&#xe204;" horiz-adv-x="246" 
d="M165 -47l27 94h-138l27 -94h84zM174 -109h-102c-9 0 -17 6 -20 15l-51 177c-1 2 -1 3 -1 5c0 11 9 21 21 21h204c12 0 21 -10 21 -21c0 -2 0 -3 -1 -5l-51 -177c-3 -9 -11 -15 -20 -15z" />
    <glyph glyph-name="noteheads.d1doWalker" unicode="&#xe205;" horiz-adv-x="246" 
d="M81 47l-27 -94h138l-27 94h-84zM72 109h102c9 0 17 -6 20 -15l51 -177c1 -2 1 -3 1 -5c0 -11 -9 -21 -21 -21h-204c-12 0 -21 10 -21 21c0 2 0 3 1 5l51 177c3 9 11 15 20 15z" />
    <glyph glyph-name="noteheads.u2doWalker" unicode="&#xe206;" horiz-adv-x="246" 
d="M174 -109h-102c-9 0 -17 6 -20 15l-51 177c-1 2 -1 3 -1 5c0 11 9 21 21 21h204c12 0 21 -10 21 -21c0 -2 0 -3 -1 -5l-51 -177c-3 -9 -11 -15 -20 -15z" />
    <glyph glyph-name="noteheads.d2doWalker" unicode="&#xe207;" horiz-adv-x="246" 
d="M72 109h102c9 0 17 -6 20 -15l51 -177c1 -2 1 -3 1 -5c0 -11 -9 -21 -21 -21h-204c-12 0 -21 10 -21 21c0 2 0 3 1 5l51 177c3 9 11 15 20 15z" />
    <glyph glyph-name="noteheads.s0reWalker" unicode="&#xe208;" horiz-adv-x="246" 
d="M41 0c0 -59 79 -60 147 -60c-17 15 -24 37 -24 60s7 45 24 60c-68 0 -147 -1 -147 -60zM0 0c0 92 118 109 225 109c11 0 21 -9 21 -21c0 -6 -2 -11 -7 -15c-21 -18 -34 -45 -34 -73s13 -55 34 -73c5 -4 7 -9 7 -15c0 -12 -10 -21 -21 -21c-107 0 -225 17 -225 109z" />
    <glyph glyph-name="noteheads.u1reWalker" unicode="&#xe209;" horiz-adv-x="246" 
d="M205 0c0 59 -79 60 -147 60c17 -15 24 -37 24 -60s-7 -45 -24 -60c68 0 147 1 147 60zM246 0c0 -92 -118 -109 -225 -109c-11 0 -21 9 -21 21c0 6 2 11 7 15c21 18 34 45 34 73s-13 55 -34 73c-5 4 -7 9 -7 15c0 12 10 21 21 21c107 0 225 -17 225 -109z" />
    <glyph glyph-name="noteheads.d1reWalker" unicode="&#xe20a;" horiz-adv-x="246" 
d="M41 0c0 -59 79 -60 147 -60c-17 15 -24 37 -24 60s7 45 24 60c-68 0 -147 -1 -147 -60zM0 0c0 92 118 109 225 109c11 0 21 -9 21 -21c0 -6 -2 -11 -7 -15c-21 -18 -34 -45 -34 -73s13 -55 34 -73c5 -4 7 -9 7 -15c0 -12 -10 -21 -21 -21c-107 0 -225 17 -225 109z" />
    </font>
</defs>
</svg>
