<?xml version="1.0" encoding="iso-8859-1"?>
<!-- Generator: Adobe Illustrator 19.0.0, SVG Export Plug-In . SVG Version: 6.00 Build 0)  -->
<svg version="1.1" id="Capa_1" xmlns="http://www.w3.org/2000/svg" xmlns:xlink="http://www.w3.org/1999/xlink" x="0px" y="0px"
	 viewBox="0 0 512.009 512.009" style="enable-background:new 0 0 512.009 512.009;" xml:space="preserve">
<g>
	<g>
		<path d="M370.634,395.38l4.715-0.917c5.547-1.067,136.661-26.773,136.661-95.808c0-21.461-6.933-36.8-20.651-45.611
			c-19.797-12.757-47.531-7.168-64.683-1.707v-16.683c0-17.643-14.357-32-32-32H96.009c-17.643,0-32,14.357-32,32v21.333
			c0,63.637,29.675,122.027,78.827,160H10.676c-4.309,0-8.213,2.603-9.856,6.592c-1.664,3.989-0.747,8.576,2.304,11.627
			l23.915,23.915c14.123,14.101,32.875,21.867,52.8,21.867h330.987c19.648,0,38.891-7.979,52.8-21.867l23.915-23.915
			c3.051-3.051,3.968-7.637,2.304-11.627c-1.664-3.989-5.547-6.592-9.856-6.592H347.807
			C356.02,409.673,363.593,402.783,370.634,395.38z M425.418,274.313c13.483-5.12,40.405-12.373,54.4-3.307
			c7.317,4.672,10.859,13.739,10.859,27.648c0,35.477-59.307,59.221-98.496,69.931C410.783,340.809,422.324,308.596,425.418,274.313
			z"/>
	</g>
</g>
<g>
	<g>
		<path d="M328.415,113.332c17.344-21.675,17.344-55.616,0-77.291c-3.733-4.608-10.432-5.312-14.997-1.664
			c-4.608,3.669-5.333,10.389-1.664,14.997c11.008,13.717,11.008,36.907-0.043,50.667c-17.365,21.653-17.365,55.616-0.021,77.291
			c2.133,2.645,5.205,4.011,8.341,4.011c2.347,0,4.715-0.768,6.677-2.347c4.608-3.669,5.333-10.389,1.664-14.997
			C317.364,150.281,317.364,127.092,328.415,113.332z"/>
	</g>
</g>
<g>
	<g>
		<path d="M264.308,113.332c17.365-21.675,17.365-55.616,0-77.291c-3.669-4.587-10.368-5.333-14.997-1.664
			c-4.608,3.669-5.333,10.389-1.664,14.997c10.987,13.717,10.987,36.907-0.021,50.667c-17.365,21.653-17.365,55.616,0,77.291
			c2.112,2.645,5.205,4.011,8.341,4.011c2.325,0,4.693-0.768,6.656-2.347c4.587-3.669,5.333-10.389,1.664-14.997
			C253.3,150.281,253.3,127.092,264.308,113.332z"/>
	</g>
</g>
<g>
	<g>
		<path d="M200.394,113.311c17.344-21.675,17.344-55.616,0-77.291c-3.669-4.587-10.389-5.355-14.997-1.643
			c-4.587,3.669-5.333,10.389-1.643,14.976c10.987,13.717,10.987,36.907-0.021,50.667c-17.387,21.675-17.387,55.637-0.021,77.312
			c2.112,2.624,5.205,3.989,8.341,3.989c2.325,0,4.693-0.768,6.656-2.347c4.608-3.669,5.333-10.389,1.664-14.997
			C189.385,150.26,189.385,127.071,200.394,113.311z"/>
	</g>
</g>
<g>
</g>
<g>
</g>
<g>
</g>
<g>
</g>
<g>
</g>
<g>
</g>
<g>
</g>
<g>
</g>
<g>
</g>
<g>
</g>
<g>
</g>
<g>
</g>
<g>
</g>
<g>
</g>
<g>
</g>
</svg>
